<?xml version="1.0" encoding="UTF-8"?>
<svg width="2533px" height="338px" viewBox="0 0 2533 338" version="1.1" xmlns="http://www.w3.org/2000/svg" xmlns:xlink="http://www.w3.org/1999/xlink">
    <title>microsoft-5</title>
    <g id="Page-1" stroke="none" stroke-width="1" fill="none" fill-rule="evenodd">
        <g id="microsoft-5" fill-rule="nonzero">
            <polygon id="Path" fill="#F1511B" points="161 161 0 161 0 0 161 0"></polygon>
            <polygon id="Path" fill="#80CC28" points="338 161 177 161 177 0 337.986448 0 337.986448 161"></polygon>
            <g id="microsoft-azure-2" transform="translate(487.000000, 59.000000)" fill="#716D6E">
                <g id="Group" transform="translate(0.741038, 0.718135)">
                    <path d="M215.893931,211.880754 L182.893569,211.880754 L182.893569,84.2857096 C182.893569,73.8266684 183.547465,61.0543489 184.85197,45.9161765 L184.299938,45.9161765 C182.239674,54.531824 180.422568,60.7159005 178.845332,64.4881214 L119.002399,211.880754 L96.0700555,211.880754 L36.082542,65.5921861 C34.4067295,61.2876483 32.6323399,54.7289784 30.7725167,45.9326061 L30.2204843,45.9326061 C30.972957,53.8187822 31.3409785,66.6929649 31.3409785,84.5650117 L31.3409785,211.880754 L0.575033681,211.880754 L0.575033681,14.7132061 L47.4156343,14.7132061 L100.131436,146.024611 C104.136957,156.105773 106.749252,163.6305 107.95518,168.572504 L108.651792,168.572504 C112.101995,158.21204 114.895015,150.506588 117.040712,145.466007 L170.739,14.7132061 L215.903789,14.7132061 L215.890645,211.880754 L215.893931,211.880754 Z M277.839845,41.5196333 C272.52982,41.5196333 267.972267,39.8306772 264.209904,36.4363356 C260.431111,33.0452798 258.545,28.7308842 258.545,23.5095784 C258.545,18.2882726 260.431111,13.9311603 264.209904,10.4415273 C267.988696,6.96503795 272.52982,5.21693556 277.839845,5.21693556 C283.333881,5.21693556 288.00644,6.96503795 291.824664,10.4415273 C295.642888,13.9311603 297.561857,18.2718431 297.561857,23.5095784 C297.561857,28.4515822 295.642888,32.6969737 291.824664,36.2260375 C287.990011,39.7616732 283.333881,41.5196333 277.839845,41.5196333 Z M293.911215,211.880754 L261.482601,211.880754 L261.482601,71.0796504 L293.914501,71.0796504 L293.914501,211.880754 L293.911215,211.880754 Z M438.918279,205.417376 C427.460323,211.923471 413.886242,215.176519 398.22561,215.176519 C376.972366,215.176519 359.819932,208.644136 346.768311,195.589229 C333.723261,182.534321 327.190878,165.598758 327.190878,144.782539 C327.190878,121.590609 334.206289,102.966089 348.233825,88.8892649 C362.264647,74.8190123 381.017317,67.7806 404.514836,67.7806 C417.563172,67.7806 429.076989,70.0281602 439.04643,74.5265666 L439.04643,104.221306 C429.063845,96.8937338 418.443795,93.22009 407.173134,93.22009 C393.470903,93.22009 382.239674,97.7875004 373.479447,106.902606 C364.719219,116.020997 360.329248,127.958696 360.329248,142.715703 C360.329248,157.291986 364.446489,168.795945 372.697401,177.227582 C380.945027,185.662505 392.018533,189.878323 405.90806,189.878323 C417.563172,189.878323 428.551244,185.803799 438.90185,177.648178 L438.918279,205.417376 L438.918279,205.417376 Z M554.263464,101.471002 C550.343377,98.4413959 544.708047,96.9364506 537.341044,96.9364506 C527.739625,96.9364506 519.718726,101.1917 513.288207,109.721914 C506.854401,118.238984 503.634213,129.841521 503.634213,144.503237 L503.634213,211.880754 L471.18917,211.880754 L471.18917,71.0796504 L503.634213,71.0796504 L503.634213,100.090921 L504.186245,100.090921 C507.353859,90.190484 512.223573,82.4686032 518.795387,76.9252785 C525.3672,71.3852397 532.711202,68.6053626 540.817534,68.6053626 C546.696021,68.6053626 551.16814,69.4859856 554.25032,71.2176585 L554.263464,101.471002 L554.263464,101.471002 Z M640.955542,215.176519 C618.864391,215.176519 601.228929,208.60142 588.026156,195.447935 C574.836526,182.297736 568.235139,164.856143 568.235139,143.136299 C568.235139,119.481057 575.10597,101.010975 588.864062,87.7194821 C602.622154,74.4279894 621.134952,67.7806 644.448461,67.7806 C666.825485,67.7806 684.247363,74.2472645 696.740381,87.1740216 C709.236684,100.104065 715.470049,118.015542 715.470049,140.92817 C715.470049,163.393915 708.740512,181.377682 695.265008,194.889331 C681.805934,208.420695 663.703874,215.176519 640.955542,215.176519 L640.955542,215.176519 Z M642.49006,93.22009 C629.813032,93.22009 619.78773,97.5772024 612.433871,106.274998 C605.063582,114.985936 601.386653,126.99264 601.386653,142.295107 C601.386653,157.052114 605.119443,168.671081 612.575165,177.145434 C620.027602,185.619788 630.010186,189.861893 642.503204,189.861893 C655.285381,189.861893 665.093813,185.688792 671.938356,177.355732 C678.779614,169.006243 682.216673,157.137548 682.216673,141.736503 C682.216673,126.253311 678.796044,114.289324 671.938356,105.854401 C665.080669,97.4359084 655.268951,93.22009 642.49006,93.22009 L642.49006,93.22009 Z M739.677324,207.484211 L739.677324,177.92748 C751.80232,187.003154 765.17596,191.537706 779.798245,191.537706 C799.38225,191.537706 809.161108,185.856373 809.161108,174.490422 C809.161108,171.280091 808.326488,168.55936 806.650675,166.308514 C804.974863,164.060954 802.717445,162.066408 799.861992,160.334735 C797.006539,158.603062 793.6582,157.038971 789.79726,155.65889 C785.91989,154.275523 781.615352,152.724575 776.860645,150.979759 C771.421161,148.889334 766.12015,146.455039 760.989715,143.691618 C756.274439,141.122039 752.370782,138.220583 749.245884,134.967535 C746.168737,131.792129 743.768607,128.024808 742.191043,123.89403 C740.600664,119.776788 739.818618,114.956363 739.818618,109.459041 C739.818618,102.673644 741.451714,96.6965794 744.714619,91.5179903 C747.984096,86.3361154 752.354352,81.982289 757.851674,78.4630828 C763.358854,74.9307331 769.592219,72.2790063 776.5912,70.4914731 C783.672576,68.6924677 790.952174,67.7916258 798.258469,67.8098925 C811.490816,67.8098925 823.329938,69.7784313 833.769264,73.7149476 L833.769264,101.625439 C823.701245,94.8400421 812.144711,91.4457004 799.096376,91.4457004 C794.992278,91.4457004 791.285775,91.8662965 787.980153,92.6746295 C784.671245,93.4993921 781.845365,94.6461736 779.515657,96.111688 C777.189235,97.5772024 775.372129,99.3351625 774.064338,101.401998 C772.76792,103.432367 772.087684,105.794931 772.105938,108.203825 C772.105938,111.230145 772.759833,113.799724 774.064338,115.909276 C775.372129,118.015542 777.300956,119.87208 779.870535,121.478888 C782.426971,123.085696 785.509151,124.551211 789.100647,125.875431 C792.692143,127.202938 796.809385,128.655308 801.481944,130.206256 C807.127515,132.450133 812.656977,134.975788 818.049486,137.7737 C822.948773,140.339993 827.121874,143.244734 830.572076,146.497782 C833.969873,149.674309 836.680649,153.513457 838.537114,157.7783 C840.400223,162.036835 841.336707,167.106989 841.336707,172.969047 C841.336707,180.11918 839.660894,186.342687 836.296126,191.665856 C832.944501,196.985739 828.459238,201.382282 822.879769,204.858772 C817.283869,208.348405 810.823777,210.931127 803.512634,212.620083 C796.185062,214.325469 788.476325,215.163426 780.369993,215.163426 C764.696218,215.176519 751.135281,212.620083 739.677324,207.484211 L739.677324,207.484211 Z M935.711235,215.176519 C913.620083,215.176519 895.971478,208.60142 882.778563,195.447935 C869.588933,182.297736 863.00069,164.856143 863.00069,143.136299 C863.00069,119.481057 869.874807,101.010975 883.632898,87.7194821 C897.374561,74.4279894 915.903789,67.7806 939.204153,67.7806 C961.581178,67.7806 978.99977,74.2472645 991.496073,87.1740216 C1003.98909,100.104065 1010.2356,118.015542 1010.2356,140.92817 C1010.2356,163.393915 1003.50606,181.377682 990.033845,194.889331 C976.561627,208.420695 958.443137,215.176519 935.711235,215.176519 L935.711235,215.176519 Z M937.245753,93.22009 C924.565439,93.22009 914.540137,97.5772024 907.173134,106.274998 C899.802846,114.985936 896.125916,126.99264 896.125916,142.295107 C896.125916,157.052114 899.861992,168.671081 907.314428,177.145434 C914.770151,185.619788 924.74945,189.861893 937.245753,189.861893 C950.008215,189.861893 959.819932,185.688792 966.67762,177.355732 C973.535307,169.006243 976.955936,157.137548 976.955936,141.736503 C976.955936,126.253311 973.535307,114.289324 966.67762,105.854401 C959.819932,97.4359084 950.008215,93.22009 937.245753,93.22009 L937.245753,93.22009 Z M1124.33214,29.4274965 C1119.96188,26.9564946 1114.96402,25.7144218 1109.36812,25.7144218 C1093.60891,25.7144218 1085.74245,34.4680774 1085.74245,51.9753886 L1085.74245,71.0895081 L1119.02211,71.0895081 L1119.02211,96.111688 L1085.88374,96.111688 L1085.88374,211.880754 L1053.44199,211.880754 L1053.44199,96.111688 L1028.97841,96.111688 L1028.97841,71.0895081 L1053.44199,71.0895081 L1053.44199,48.2623139 C1053.44199,33.4100154 1058.38399,21.7089015 1068.26471,13.1359708 C1078.14543,4.55975421 1090.50044,0.274931817 1105.32317,0.274931817 C1113.34407,0.274931817 1119.67601,1.1424112 1124.33214,2.88722768 L1124.33214,29.4274965 L1124.33214,29.4274965 Z M1217.87205,210.372523 C1211.5401,213.487563 1203.19062,215.051654 1192.84001,215.051654 C1165.06753,215.051654 1151.18128,201.940887 1151.18128,175.73578 L1151.18128,96.1248316 L1127.27303,96.1248316 L1127.27303,71.1059376 L1151.18128,71.1059376 L1151.18128,38.5163145 L1183.62633,29.443926 L1183.62633,71.1059376 L1217.88519,71.1059376 L1217.88519,96.1248316 L1183.62633,96.1248316 L1183.62633,166.515526 C1183.62633,174.851871 1185.15756,180.812506 1188.23974,184.387573 C1191.32192,187.962639 1196.44465,189.750173 1203.61778,189.750173 C1209.11182,189.750173 1213.86981,188.199225 1217.87205,185.071041 L1217.87205,210.372523 L1217.87205,210.372523 Z M1493.04702,211.880754 L1456.55703,211.880754 L1438.52397,161.688529 L1359.66878,161.688529 L1342.33234,211.880754 L1305.97049,211.880754 L1381.05018,14.7132061 L1418.51937,14.7132061 L1493.04374,211.880754 L1493.04702,211.880754 Z M1429.70788,135.023396 L1401.89268,56.3752177 C1401.05478,53.8056386 1400.16101,49.6883975 1399.23767,44.0037788 L1398.68564,44.0037788 C1397.84773,49.2283705 1396.91125,53.3587553 1395.88604,56.3752177 L1368.34357,135.023396 L1429.70788,135.023396 Z M1622.80091,84.4237177 L1545.48024,186.986725 L1622.51832,186.986725 L1622.51832,211.880754 L1500.02957,211.880754 L1500.02957,199.916768 L1579.02934,95.970394 L1507.58387,95.970394 L1507.58387,71.0763645 L1622.80091,71.0763645 L1622.80091,84.4237177 L1622.80091,84.4237177 Z M1775.06325,211.880754 L1742.63464,211.880754 L1742.63464,189.599021 L1742.08261,189.599021 C1732.66848,206.646305 1718.02977,215.176519 1698.18289,215.176519 C1664.34463,215.176519 1647.42221,195.198206 1647.42221,155.22515 L1647.42221,71.0763645 L1679.86396,71.0763645 L1679.86396,151.929386 C1679.86396,177.230868 1689.7874,189.878323 1709.65399,189.878323 C1719.24884,189.878323 1727.14488,186.401834 1733.34867,179.435711 C1739.55246,172.469589 1742.64778,163.351198 1742.64778,152.07068 L1742.64778,71.0763645 L1775.09283,71.0763645 L1775.06325,211.880754 L1775.06325,211.880754 Z M1900.4896,101.471002 C1896.5728,98.4413959 1890.93418,96.9364506 1883.56718,96.9364506 C1873.96905,96.9364506 1865.94486,101.1917 1859.51434,109.721914 C1853.08382,118.238984 1849.86035,129.841521 1849.86035,144.503237 L1849.86035,211.880754 L1817.42845,211.880754 L1817.42845,71.0796504 L1849.86035,71.0796504 L1849.86035,100.090921 L1850.41238,100.090921 C1853.58,90.190484 1858.44971,82.4686032 1865.02152,76.9252785 C1871.59662,71.3852397 1878.93734,68.6053626 1887.04367,68.6053626 C1892.90901,68.6053626 1897.39428,69.4859856 1900.46003,71.2176585 L1900.49289,101.471002 L1900.4896,101.471002 Z M2044.9282,150.141853 L1947.32691,150.141853 C1947.69494,163.154043 1951.76946,173.192488 1959.56363,180.257188 C1967.34466,187.308744 1978.037,190.841094 1991.6538,190.841094 C2006.94312,190.841094 2020.97066,186.345973 2033.7364,177.368876 L2033.7364,203.071238 C2020.69135,211.141425 2003.44034,215.176519 1981.9998,215.176519 C1960.92728,215.176519 1944.4156,208.782144 1932.4319,195.993395 C1920.4482,183.204646 1914.47113,165.220879 1914.47113,142.032235 C1914.47113,120.125094 1921.05938,102.266191 1934.26544,88.4719548 C1947.45507,74.6777183 1963.8386,67.7806 1983.41931,67.7806 C2002.99675,67.7806 2018.13163,73.9679624 2028.85355,86.3361154 C2039.57217,98.7075543 2044.93806,115.892847 2044.93806,137.898564 L2044.92492,150.141853 L2044.9282,150.141853 Z M2013.60694,127.593961 C2013.46565,116.132718 2010.76792,107.221339 2005.35931,100.856537 C1999.94743,94.4917359 1992.49499,91.3076923 1982.98229,91.3076923 C1973.66674,91.3076923 1965.75757,94.6593172 1959.28433,101.346137 C1952.81109,108.032958 1948.822,116.789899 1947.3302,127.607104 L2013.60694,127.607104 L2013.60694,127.593961 Z" id="Shape"></path>
                </g>
            </g>
            <polygon id="Path" fill="#00ADEF" points="161 338 0 338 0 177 161 177"></polygon>
            <polygon id="Path" fill="#FBBC09" points="338 338 177 338 177 177 337.986448 177 337.986448 338"></polygon>
        </g>
    </g>
</svg>