<?xml version="1.0" encoding="UTF-8"?>
<svg width="79px" height="14px" viewBox="0 0 79 14" version="1.1" xmlns="http://www.w3.org/2000/svg" xmlns:xlink="http://www.w3.org/1999/xlink">
    <!-- Generator: sketchtool 51.2 (57519) - http://www.bohemiancoding.com/sketch -->
    <title>E4288A0C-7F95-4AEF-92FD-E80AB0ACC65A</title>
    <desc>Created with sketchtool.</desc>
    <defs></defs>
    <g id="Page-1" stroke="none" stroke-width="1" fill="none" fill-rule="evenodd">
        <g id="Header_05" transform="translate(-60.000000, -104.000000)" fill="#FFFFFF">
            <g id="top_header" transform="translate(0.000000, 92.000000)">
                <g id="header_logo" transform="translate(60.000000, 12.000000)">
                    <path d="M76.266052,7.18615625 L76.266052,7.154875 C76.266052,5.73496875 75.2659942,4.79346875 74.0835058,4.79346875 C72.9028439,4.79346875 71.9187688,5.73496875 71.9187688,7.154875 L71.9187688,7.18615625 C71.9187688,8.60715625 72.9028439,9.54953125 74.0835058,9.54953125 C75.2659942,9.54953125 76.266052,8.6226875 76.266052,7.18615625 Z M69.4204509,2.893625 L71.952789,2.893625 L71.952789,4.12190625 C72.568578,3.3245625 73.4188555,2.7348125 74.7335434,2.7348125 C76.8160838,2.7348125 78.7967919,4.2984375 78.7967919,7.154875 L78.7967919,7.18615625 C78.7967919,10.04325 76.8489624,11.6070937 74.7335434,11.6070937 C73.383922,11.6070937 72.5507688,11.0166875 71.952789,10.3304687 L71.952789,14 L69.4204509,14 L69.4204509,2.893625 Z" id="Fill-1"></path>
                    <polyline id="Fill-2" points="19.1556734 0.19775 21.5227052 0.19775 26.9848931 7.154875 26.9848931 0.19775 29.5165462 0.19775 29.5165462 11.4485 27.3351416 11.4485 21.6891532 4.34503125 21.6891532 11.4485 19.1556734 11.4485 19.1556734 0.19775"></polyline>
                    <path d="M37.0427803,6.50059375 C36.893685,5.4140625 36.2272081,4.680375 35.1625347,4.680375 C34.1115607,4.680375 33.4281879,5.40159375 33.2290896,6.50059375 L37.0427803,6.50059375 Z M30.7474393,7.21896875 L30.7474393,7.18615625 C30.7474393,4.74490625 32.5632977,2.7348125 35.1625347,2.7348125 C38.1426156,2.7348125 39.507763,4.9529375 39.507763,7.37865625 C39.507763,7.56940625 39.492922,7.7940625 39.4741994,8.01675 L33.2617399,8.01675 C33.5133526,9.1175 34.3113439,9.69303125 35.4447428,9.69303125 C36.2945636,9.69303125 36.9096676,9.43753125 37.6097081,8.81453125 L39.0572803,10.04325 C38.2259538,11.0330937 37.0261127,11.6390313 35.4118642,11.6390313 C32.7295173,11.6390313 30.7474393,9.8363125 30.7474393,7.21896875 Z" id="Fill-3"></path>
                    <path d="M41.0889046,9.02059375 L41.0889046,4.9678125 L40.0233179,4.9678125 L40.0233179,2.893625 L41.0889046,2.893625 L41.0889046,0.70875 L43.6189595,0.70875 L43.6189595,2.893625 L45.7195376,2.893625 L45.7195376,4.9678125 L43.6189595,4.9678125 L43.6189595,8.6226875 C43.6189595,9.18115625 43.8703439,9.4530625 44.4356734,9.4530625 C44.9016821,9.4530625 45.3179162,9.3415 45.6857457,9.148125 L45.6857457,11.095875 C45.1523815,11.3999375 44.5343092,11.591125 43.6844884,11.591125 C42.1371387,11.591125 41.0889046,11.0000625 41.0889046,9.02059375" id="Fill-4"></path>
                    <path d="M65.8572312,7.18615625 L65.8572312,7.154875 C65.8572312,5.73496875 64.8576301,4.79346875 63.6765116,4.79346875 C62.4947081,4.79346875 61.5122312,5.73496875 61.5122312,7.154875 L61.5122312,7.18615625 C61.5122312,8.60715625 62.4947081,9.54953125 63.6765116,9.54953125 C64.8576301,9.54953125 65.8572312,8.6226875 65.8572312,7.18615625 Z M59.0141416,2.893625 L61.5453382,2.893625 L61.5453382,4.12190625 C62.1611272,3.3245625 63.0098064,2.7348125 64.3265491,2.7348125 C66.4090896,2.7348125 68.3897977,4.2984375 68.3897977,7.154875 L68.3897977,7.18615625 C68.3897977,10.04325 66.4419682,11.6070937 64.3265491,11.6070937 C62.9776127,11.6070937 62.1437746,11.0166875 61.5453382,10.3304687 L61.5453382,14 L59.0141416,14 L59.0141416,2.893625 Z" id="Fill-5"></path>
                    <path d="M53.8736618,6.77359375 L52.3253988,3.14803125 L50.7755376,6.77359375 L53.8736618,6.77359375 Z M51.2050145,0.19665625 L53.5097139,0.19665625 L58.3814566,11.4485 L55.7091561,11.4485 L54.635578,8.94140625 L50.0133931,8.94140625 L48.9471214,11.4485 L46.3335,11.4485 L51.2050145,0.19665625 Z" id="Fill-6"></path>
                    <polyline id="Fill-7" points="0 0.1981875 0 11.4485 5.47976879 11.4485 5.47976879 4.6983125 8.611 4.6983125 8.611 11.4485 14.0907688 11.4485 14.0907688 0.1981875 0 0.1981875"></polyline>
                </g>
            </g>
        </g>
    </g>
</svg>