<svg xmlns="http://www.w3.org/2000/svg" width="32" height="32" viewBox="0 0 32 32">
    <g fill="none" fill-rule="evenodd" transform="translate(1 1)">
        <path fill="#FFF" fill-rule="nonzero" d="M20.325 10.2h1.05c.18 0 .325.145.325.325v8.654c0 .18-.145.325-.325.325h-1.05a.325.325 0 0 1-.325-.325v-8.654c0-.18.145-.325.325-.325zm-4 3.489h1.05c.18 0 .325.145.325.325v5.165c0 .18-.145.325-.325.325h-1.05a.325.325 0 0 1-.325-.325v-5.165c0-.18.145-.325.325-.325zm-4-3.489h1.05c.18 0 .325.145.325.325v8.654c0 .18-.145.325-.325.325h-1.05a.325.325 0 0 1-.325-.325v-8.654c0-.18.145-.325.325-.325zm-4 3.489h1.05c.18 0 .325.145.325.325v5.165c0 .18-.145.325-.325.325h-1.05A.325.325 0 0 1 8 19.179v-5.165c0-.18.145-.325.325-.325z"/>
        <circle cx="15" cy="15" r="15" stroke="#FFF" stroke-width="1.283"/>
    </g>
</svg>
