<svg xmlns="http://www.w3.org/2000/svg" width="32" height="32" viewBox="0 0 32 32">
    <g fill="none" fill-rule="evenodd" transform="translate(1 1)">
        <circle cx="15" cy="15" r="15" stroke="#FFF" stroke-width="1.281"/>
        <g fill="#FFF" fill-rule="nonzero">
            <path d="M20.975 14.35a.65.65 0 0 0-.65.65c0 2.866-2.334 5.2-5.2 5.2a5.166 5.166 0 0 1-3.675-1.525l.79-.817a.26.26 0 0 0-.184-.442l-2.52.181a.26.26 0 0 0-.261.261l.139 2.497a.26.26 0 0 0 .443.184l.67-.945a6.482 6.482 0 0 0 4.598 1.906c3.585 0 6.5-2.915 6.5-6.5a.65.65 0 0 0-.65-.65zM9.925 15c0-2.866 2.334-5.2 5.2-5.2 1.384 0 2.7.555 3.672 1.528l-.74.892a.26.26 0 0 0 .184.443h2.498a.26.26 0 0 0 .261-.26l-.022-2.765a.26.26 0 0 0-.443-.184l-.816.955A6.512 6.512 0 0 0 15.125 8.5a6.506 6.506 0 0 0-6.5 6.5.65.65 0 0 0 1.3 0z"/>
        </g>
    </g>
</svg>
