<svg xmlns="http://www.w3.org/2000/svg" width="32" height="32" viewBox="0 0 32 32">
    <g fill="none" fill-rule="evenodd" transform="translate(1 1)">
        <circle cx="15" cy="15" r="15" stroke="#FFF" stroke-width="1.283"/>
        <g fill="#FFF" fill-rule="nonzero">
            <path d="M15 17.5c1.406 0 2.545-1.12 2.545-2.5s-1.14-2.5-2.545-2.5c-1.406 0-2.545 1.12-2.545 2.5s1.14 2.5 2.545 2.5zm0-3.75c.703 0 1.273.56 1.273 1.25s-.57 1.25-1.273 1.25-1.273-.56-1.273-1.25.57-1.25 1.273-1.25z"/>
            <path d="M8.207 18.416c.116.222.245.438.385.646a1.867 1.867 0 0 0 2.163.7l.8-.28c.374.28.784.512 1.218.693l.152.822c.153.845.884 1.47 1.757 1.503h.636a1.845 1.845 0 0 0 1.75-1.497l.16-.828c.43-.18.838-.41 1.212-.688l.798.282c.803.284 1.7-.007 2.17-.706.14-.21.268-.429.382-.654a1.766 1.766 0 0 0-.465-2.187l-.636-.538c.06-.456.06-.918 0-1.375l.636-.537c.648-.538.84-1.44.468-2.188a7.071 7.071 0 0 0-.385-.647 1.867 1.867 0 0 0-2.163-.7l-.8.282a5.565 5.565 0 0 0-1.218-.694l-.152-.822A1.844 1.844 0 0 0 15.318 7.5h-.662a1.845 1.845 0 0 0-1.75 1.497l-.133.828c-.432.178-.84.409-1.213.687l-.798-.28a1.867 1.867 0 0 0-2.17.705c-.14.21-.267.427-.382.65a1.797 1.797 0 0 0 .465 2.188l.636.537c-.06.457-.06.919 0 1.375l-.636.538a1.775 1.775 0 0 0-.468 2.19zm1.292-1.25l.916-.763a.619.619 0 0 0 .213-.594 4.123 4.123 0 0 1 0-1.643.619.619 0 0 0-.213-.594l-.916-.76a.55.55 0 0 1-.156-.668c.096-.187.202-.368.318-.544a.575.575 0 0 1 .668-.2l1.133.397a.645.645 0 0 0 .636-.116c.425-.36.915-.637 1.445-.819a.628.628 0 0 0 .417-.478l.216-1.165a.589.589 0 0 1 .554-.469c.18-.01.36-.01.54 0 .275.01.507.204.56.469l.217 1.168c.04.222.2.405.417.479.53.18 1.02.459 1.444.818.175.15.419.194.637.116l1.132-.397a.575.575 0 0 1 .668.2c.116.176.223.357.319.544a.55.55 0 0 1-.163.665l-.913.763a.619.619 0 0 0-.216.594c.11.542.11 1.1 0 1.643a.619.619 0 0 0 .216.594l.913.781a.55.55 0 0 1 .156.67 5.809 5.809 0 0 1-.318.543.572.572 0 0 1-.668.2l-1.133-.397a.645.645 0 0 0-.636.116c-.425.36-.915.637-1.445.819a.628.628 0 0 0-.417.478l-.216 1.165a.589.589 0 0 1-.554.469c-.18.01-.36.01-.54 0a.589.589 0 0 1-.56-.472l-.217-1.165a.628.628 0 0 0-.417-.479 4.475 4.475 0 0 1-1.444-.818.643.643 0 0 0-.63-.116l-1.133.397a.572.572 0 0 1-.668-.2 5.809 5.809 0 0 1-.318-.544.55.55 0 0 1 .156-.666v-.021z"/>
        </g>
    </g>
</svg>
