<svg xmlns="http://www.w3.org/2000/svg" width="38" height="34" viewBox="0 0 38 34">
    <g fill="none" fill-rule="evenodd">
        <path fill="#434957" fill-rule="nonzero" d="M37.621 16.78L31.314 5.86a.75.75 0 0 0-.965-.276L27.45 7.209a.735.735 0 0 0-.28 1.008l.58 1.15c-.41.276-.908.395-1.4.332a9.115 9.115 0 0 1-1.353-.304c-2.125-.56-5.67-1.511-9.146 0a6.78 6.78 0 0 0-1.826 1.112c-.318 0-.965-.114-1.632-.209a5.357 5.357 0 0 1-1.825-1.197l.405-.704a.735.735 0 0 0-.28-1.007L7.797 5.764a.744.744 0 0 0-.57-.066.713.713 0 0 0-.454.342L.486 16.97a.712.712 0 0 0-.068.561c.048.19.174.352.348.447l2.897 1.625a.733.733 0 0 0 .367.095c.068.01.136.01.203 0a.713.713 0 0 0 .454-.342l.686-1.179a21.82 21.82 0 0 0 1.844 2.1l-.154.22a1.88 1.88 0 0 0-.348 1.083c0 .61.299 1.183.802 1.54.318.231.705.355 1.1.351h.078c-.029.19-.029.381 0 .57.089.491.37.928.782 1.217.32.23.706.353 1.101.352.197 0 .392-.028.58-.086.109.548.457 1.02.952 1.293a1.96 1.96 0 0 0 1.617.123 1.9 1.9 0 0 0 1.854 1.436h.329c.5-.08.945-.354 1.236-.76v-.058a8.615 8.615 0 0 0 3.545.95 3.84 3.84 0 0 0 1.265-.228 2.753 2.753 0 0 0 1.613-1.292h.318c.541.003 1.07-.156 1.517-.456a2.564 2.564 0 0 0 1.023-1.512 2.457 2.457 0 0 0 1.565-.788 3.2 3.2 0 0 0 .666-1.16 2.814 2.814 0 0 0 1.932-1.017 1.988 1.988 0 0 0 .28-1.55 2.034 2.034 0 0 0-.251-.617 6.602 6.602 0 0 0 2.28-1.749l.56.95a.761.761 0 0 0 .453.352c.068.01.136.01.203 0a.841.841 0 0 0 .367-.095l2.898-1.625a.753.753 0 0 0 .357-.447.713.713 0 0 0-.116-.494zm-32.702.19l-.966 1.606-2.52-1.34 6.103-10.54 2.52 1.416L4.92 16.97zM9.4 22.084a.976.976 0 0 1-1.304.209A.94.94 0 0 1 7.874 21l.348-.494.444-.608a.976.976 0 0 1 1.323-.219c.376.27.501.766.3 1.179L9.4 22.084zm2.086 1.967l-.125.171a.967.967 0 0 1-.913.569.965.965 0 0 1-.877-.62.94.94 0 0 1 .254-1.032l.348-.466.792-1.093 1.043-1.445a.98.98 0 0 1 1.333-.314c.21.141.35.362.386.609a.939.939 0 0 1-.164.694l-.348.484-1.729 2.443zm2.56 1.312l-.232.313a.967.967 0 0 1-.921.565.964.964 0 0 1-.873-.635.94.94 0 0 1 .278-1.032l1.728-2.395a.975.975 0 0 1 .97-.294c.353.09.625.37.701.721a.854.854 0 0 1-.164.694l-.58.808-.907 1.255zm3.245.37l-.609.827-.077.114-.241.323a.977.977 0 0 1-1.189.153.944.944 0 0 1-.424-1.103l.077-.124.918-1.264a.976.976 0 0 1 1.303-.2.94.94 0 0 1 .223 1.303l.019-.029zm12.459-4.182c-.37.376-.87.597-1.4.618l-5.709-3.517a.488.488 0 0 0-.666.143.46.46 0 0 0 .155.656l5.563 3.44a2.16 2.16 0 0 1-.454.742 1.586 1.586 0 0 1-1.13.485l-5.042-2.776a.49.49 0 0 0-.661.186.475.475 0 0 0 .188.65l4.829 2.652a1.567 1.567 0 0 1-.637.95c-.42.271-.936.354-1.42.229h-.058a.694.694 0 0 0-.097-.076l-3.863-1.901a.486.486 0 0 0-.617.224.471.471 0 0 0 .182.622l3.7 1.834a1.852 1.852 0 0 1-.966.713 5.728 5.728 0 0 1-3.864-.675l.31-.465c.293-.409.41-.914.328-1.407a1.921 1.921 0 0 0-1.797-1.559c.087-.286.107-.589.058-.884a1.897 1.897 0 0 0-.772-1.216 1.954 1.954 0 0 0-1.198-.352 1.768 1.768 0 0 0 0-.551 1.915 1.915 0 0 0-1.465-1.498 1.948 1.948 0 0 0-1.983.718l-.087.114a1.737 1.737 0 0 0-.618-.731 1.952 1.952 0 0 0-2.665.437l-.078.095a22.674 22.674 0 0 1-1.931-2.224l4.21-7.28a5.56 5.56 0 0 0 2.203 1.32l.965.134a5.531 5.531 0 0 0-1.043 2.167 2.088 2.088 0 0 0 .57 1.986c.504.501 1.231.716 1.932.57a3.264 3.264 0 0 0 1.873-1.112l.966-1.264 1.362-.351a40.641 40.641 0 0 1 10.44 6.653h.058a.47.47 0 0 0 .097.085.949.949 0 0 1 .377.59 1.06 1.06 0 0 1-.145.826zm.125-2.366a40.65 40.65 0 0 0-10.691-6.739.648.648 0 0 0-.27 0 .697.697 0 0 0-.194 0l-1.497.39a.803.803 0 0 0-.405.266l-.966 1.312c-.34.397-.807.671-1.323.779a1.171 1.171 0 0 1-1.063-.314 1.185 1.185 0 0 1-.318-1.112 4.538 4.538 0 0 1 1.429-2.385 6.505 6.505 0 0 1 1.748-1.093c3.149-1.36 6.5-.466 8.5.066a9.469 9.469 0 0 0 1.515.333c.679.07 1.36-.09 1.932-.456l4.076 7.052a5.59 5.59 0 0 1-2.482 1.9h.01zm4.289-.704l-.908-1.568-4.26-7.366-.917-1.587 2.511-1.445 6.085 10.55-2.511 1.416z"/>
        <path fill="#3D84FF" d="M5.181 13.882l.02.011a.537.537 0 0 1 .193.753l-1.358 2.166a.567.567 0 0 1-.757.194l-.02-.012a.537.537 0 0 1-.193-.752l1.357-2.167a.567.567 0 0 1 .758-.193zM29.923 8.35l-.01.005a.547.547 0 0 0-.202.759l1.478 2.466a.567.567 0 0 0 .763.203l.011-.006a.547.547 0 0 0 .202-.759l-1.478-2.466a.567.567 0 0 0-.764-.203z"/>
    </g>
</svg>
