<svg xmlns="http://www.w3.org/2000/svg" width="71" height="71" viewBox="0 0 71 71">
    <defs>
        <filter id="prefix__a" width="101.8%" height="104.2%" x="-.9%" y="-2.1%" filterUnits="objectBoundingBox">
            <feOffset dx="2" dy="2" in="SourceAlpha" result="shadowOffsetOuter1"/>
            <feGaussianBlur in="shadowOffsetOuter1" result="shadowBlurOuter1" stdDeviation="3.5"/>
            <feColorMatrix in="shadowBlurOuter1" result="shadowMatrixOuter1" values="0 0 0 0 0.411175272 0 0 0 0 0.411175272 0 0 0 0 0.411175272 0 0 0 0.5 0"/>
            <feMerge>
                <feMergeNode in="shadowMatrixOuter1"/>
                <feMergeNode in="SourceGraphic"/>
            </feMerge>
        </filter>
    </defs>
    <g fill="#FFF" stroke="#FFF" stroke-width=".64" filter="url(#prefix__a)" transform="translate(-1324.857 -356)">
        <g>
            <path d="M56.073 18.906c-.046-.115-.115-.219-.202-.306l-9.218-9.087-1.812-1.787-.005-.005c-.02-.02-.047-.028-.07-.046-.066-.06-.142-.11-.223-.147-.091-.034-.181-.052-.273-.056-.013 0-.025-.006-.038-.007-.013 0-.025-.008-.038-.008H31.229c-1.01.001-.685-.324-.686.686V16.6H23c-1.01.001-.685-.324-.686.686v8.685c.001 1.01-.323.685.686.686h7.543v6.4H23c-1.01.001-.685-.324-.686.686v19.31c.002 1.705.242 1.945 1.948 1.947h29.934c1.705-.002 1.945-.242 1.947-1.947V19.25c0-.119-.024-.236-.07-.345zm-10.965-8.348l.66.65L53 18.342h-6.6c-.704.007-1.283-.558-1.292-1.263v-6.521zM25.404 53.17c-.696 0-1.26-.565-1.261-1.261V34.886h6.4c1.01-.001 1.827-.82 1.828-1.829v-6.4c0-1.01-.819-1.827-1.828-1.828h-6.4v-6.4h6.4c1.01-.002 1.827-.82 1.828-1.829V9.286H43.28v8.936c.01 1.715.264 1.955 1.979 1.948h9.056v31.74c0 .696-.565 1.26-1.261 1.261H25.404z" transform="translate(1330.286 362)"/>
            <path d="M25.971 13.857c1.01-.001.685.324.686-.686V4.486c-.001-1.01.324-.685-.686-.686h-8.685c-1.01.001-.685-.324-.686.686v8.685c.001 1.01-.324.685.686.686h8.685zM18.43 5.63h6.4v6.4h-6.4v-6.4zM9.286 26.657h8.685c1.01-.001.685.324.686-.686v-8.685c-.001-1.01.324-.685-.686-.686H9.286c-1.01.001-.685-.324-.686.686v8.685c.001 1.01-.324.685.686.686zm1.143-8.228h6.4v6.4h-6.4v-6.4zM.829 38.543h8.685c1.01-.001.685.324.686-.686v-8.686c-.001-1.009.324-.684-.686-.685H.83c-1.01 0-.685-.324-.686.685v8.686c.001 1.01-.324.685.686.686zm1.142-8.229h6.4l.001 6.4h-6.4v-6.4zM13.857 9.514V.83c-.001-1.01.324-.685-.686-.686H4.486C3.476.144 3.8-.181 3.8.829v8.685c.001 1.01-.324.685.686.686h8.685c1.01-.001.685.324.686-.686zM5.63 1.971h6.4v6.4h-6.4v-6.4z" transform="translate(1330.286 362)"/>
        </g>
    </g>
</svg>
