<svg xmlns="http://www.w3.org/2000/svg" width="49" height="48" viewBox="0 0 49 48">
    <g fill="#FFF" stroke="#FFF" stroke-width=".64">
        <path d="M47.062 15.867c-.04-.096-.097-.183-.17-.256l-7.737-7.627-1.52-1.5-.005-.004c-.017-.017-.04-.023-.058-.038-.056-.05-.12-.092-.188-.124-.076-.028-.152-.043-.229-.047-.01 0-.02-.005-.031-.006-.012 0-.021-.006-.033-.006H26.21c-.847 0-.575-.272-.576.575v7.098h-6.33c-.848.001-.575-.272-.576.576v7.29c.001.847-.272.574.576.575h6.33v5.371h-6.33c-.848.001-.575-.271-.576.576v16.206c.002 1.432.203 1.633 1.634 1.635h25.124c1.431-.002 1.632-.203 1.634-1.635V16.157c0-.1-.02-.198-.058-.29zm-9.203-7.006l.553.546 6.07 5.987h-5.538c-.592.006-1.078-.468-1.085-1.06V8.861zM21.322 44.626c-.585 0-1.059-.474-1.06-1.059V29.28h5.372c.847 0 1.534-.687 1.535-1.535v-5.371c-.001-.847-.688-1.534-1.535-1.535h-5.371v-5.371h5.371c.847-.001 1.534-.688 1.535-1.535V7.793h9.155v7.5c.008 1.44.221 1.64 1.66 1.635h7.601v26.64c0 .584-.474 1.057-1.059 1.058H21.322z" transform="translate(1 1)"/>
        <path d="M21.797 11.63c.848 0 .575.272.576-.575v-7.29c-.001-.847.272-.575-.576-.576h-7.29c-.847.001-.574-.271-.575.576v7.29c.001.847-.272.574.576.575h7.29zm-6.33-6.906h5.371l.001 5.371h-5.372V4.724zM7.793 22.373h7.29c.847-.001.575.272.576-.576v-7.29c-.001-.847.271-.574-.576-.575h-7.29c-.847.001-.574-.272-.575.576v7.29c0 .847-.272.574.575.575zm.96-6.906h5.371v5.371H8.754v-5.371zM.695 32.348h7.29c.847 0 .575.272.576-.575v-7.29c-.001-.847.271-.574-.576-.575H.695c-.847 0-.574-.272-.575.575v7.29c0 .847-.272.574.575.575zm.96-6.906h5.371v5.372H1.656v-5.372zM11.63 7.985V.695c0-.847.272-.574-.575-.575h-7.29c-.847 0-.575-.272-.576.575v7.29c.001.847-.271.575.576.576h7.29c.847-.001.574.271.575-.576zm-6.906-6.33h5.371l.001 5.371H4.724V1.655z" transform="translate(1 1)"/>
    </g>
</svg>
