<svg xmlns="http://www.w3.org/2000/svg" width="38" height="34" viewBox="0 0 38 34">
    <g fill="none" fill-rule="nonzero" stroke="#FFF" stroke-width=".5">
        <path fill="#434957" d="M13.53 13.554c0-1.422.63-2.757 1.765-3.79.505-.432 1.136-.776 1.766-1.035-.462-.603-.714-1.378-.714-2.24C16.347 4.594 17.777 3 19.5 3c1.724 0 3.153 1.55 3.153 3.49 0 .86-.252 1.636-.714 2.24.63.258 1.261.602 1.766 1.033 1.177.99 1.808 2.37 1.808 3.79 0 .56 0 1.724-6.013 1.724-1.387 0-2.69-.086-3.658-.215-.757-.13-2.312-.345-2.312-1.508zm4.498-7.065c0 .991.673 1.766 1.472 1.766.799 0 1.472-.818 1.472-1.766 0-.947-.673-1.766-1.472-1.766-.799 0-1.472.775-1.472 1.766zm-1.64 4.61c-.672.603-1.093 1.335-1.177 2.11 1.472.517 7.148.517 8.578 0-.084-.775-.505-1.55-1.178-2.11-.84-.69-1.934-1.077-3.111-1.077-1.177 0-2.27.387-3.111 1.076zM1 26.141c0-1.465.63-2.8 1.766-3.791.504-.431 1.135-.776 1.766-1.034a3.93 3.93 0 0 1-.715-2.24c0-1.895 1.43-3.49 3.153-3.49 1.724 0 3.154 1.551 3.154 3.49 0 .861-.252 1.637-.715 2.24a6.014 6.014 0 0 1 1.766 1.034c1.177.99 1.808 2.369 1.808 3.79 0 .56 0 1.724-6.013 1.724-1.387 0-2.69-.087-3.657-.216C2.555 27.52 1 27.305 1 26.142zm6.013-8.874c-.841 0-1.472.818-1.472 1.766 0 .948.673 1.766 1.471 1.766h.169c.756-.086 1.303-.862 1.303-1.766 0-.948-.673-1.766-1.472-1.766zM3.9 23.686c-.673.56-1.093 1.292-1.177 2.154 1.471.517 7.148.517 8.577 0-.084-.775-.504-1.55-1.177-2.11-.673-.56-1.556-.905-2.48-1.035h-.127c-.042 0-.126-.043-.168-.043h-.084c-.084 0-.126-.043-.21-.043-1.178-.043-2.313.345-3.154 1.077zm32.291-1.335c1.177.99 1.808 2.326 1.766 3.79 0 .56 0 1.724-6.013 1.724-1.387 0-2.69-.087-3.657-.216-.757-.129-2.313-.344-2.313-1.507 0-1.465.63-2.8 1.808-3.791.505-.431 1.135-.776 1.766-1.034-.463-.603-.715-1.379-.715-2.24 0-1.895 1.43-3.49 3.154-3.49 1.723 0 3.153 1.551 3.153 3.49 0 .861-.252 1.637-.715 2.24.63.258 1.261.603 1.766 1.034zm-4.162-5.083c-.841 0-1.472.818-1.472 1.766 0 .904.547 1.68 1.303 1.766.883.13 1.64-.732 1.64-1.766 0-.948-.673-1.766-1.471-1.766zm-4.29 8.486c1.43.517 7.107.517 8.578-.043-.084-.776-.504-1.551-1.177-2.111-.841-.69-1.976-1.077-3.154-1.077-.084.043-.126.043-.21.043h-.084c-.042.043-.126.043-.168.043h-.126a4.604 4.604 0 0 0-2.48 1.034c-.674.603-1.094 1.335-1.178 2.11z"/>
        <path fill="#3D84FF" d="M13.361 28.08a11.46 11.46 0 0 0 6.139 1.766c2.186 0 4.33-.603 6.139-1.766a.85.85 0 0 1 1.177.258.898.898 0 0 1-.252 1.207 13.004 13.004 0 0 1-7.064 2.067c-2.48 0-4.92-.689-7.022-2.024-.42-.259-.546-.819-.294-1.206.252-.431.799-.56 1.177-.302zm1.346-23.262c.42-.172.925.087 1.093.517.126.431-.084.948-.505 1.12-3.321 1.293-5.97 4.179-7.021 7.668-.126.388-.42.603-.799.603-.084 0-.168 0-.252-.043-.42-.13-.673-.603-.547-1.077 1.22-4.006 4.205-7.28 8.03-8.788zm16.02 9.305c-1.052-3.49-3.7-6.375-7.022-7.668a.866.866 0 0 1-.505-1.12c.168-.473.673-.689 1.093-.517 3.826 1.508 6.812 4.782 8.03 8.788.127.43-.083.948-.546 1.077-.084.043-.168.043-.252.043a.846.846 0 0 1-.799-.603z"/>
    </g>
</svg>
