<svg xmlns="http://www.w3.org/2000/svg" width="32" height="49" viewBox="0 0 32 49">
    <path fill="#FFF" stroke="#FFF" d="M30.906 1.844c1.982 13.577-5.927 19.11-14.339 23.522-.008.006-.018.011-.027.016-8.358 4.342-15.123 8.955-13.295 21.49.08.538-.286 1.039-.817 1.118l-.073.007-.07.003c-.473 0-.888-.353-.959-.84C-.659 33.558 6.721 28.307 15.26 23.832c.012-.01.025-.017.04-.024 8.253-4.288 15.51-9.173 13.687-21.677-.08-.538.286-1.038.817-1.118.525-.087 1.024.29 1.102.83zM21.007 26.17c5.525 3.509 11.639 9.065 9.898 20.988-.071.488-.487.84-.958.84-.048 0-.097-.003-.144-.01-.53-.08-.898-.58-.818-1.118 1.568-10.733-3.675-15.642-9.009-19.03-.453-.288-.592-.896-.307-1.357.285-.462.883-.599 1.338-.313zm4.584 17.772c.535 0 .97.442.97.985 0 .545-.435.984-.972.984H6.629c-.535 0-.97-.441-.97-.984 0-.543.435-.985.97-.985h18.962zm-2.124-5.755c.535 0 .97.442.97.985.002.543-.431.985-.968.985H8.747c-.535 0-.97-.442-.97-.985 0-.543.435-.985.97-.985h14.72zm-2.304-5.756c.536 0 .971.442.971.985 0 .543-.435.985-.97.985H11.057c-.535 0-.97-.442-.97-.985 0-.543.435-.985.97-.985h10.105zM2.413 1.012c.53.08.898.58.818 1.118C1.665 12.865 6.906 17.77 12.24 21.16c.453.287.592.895.308 1.357-.184.3-.501.464-.824.464-.176 0-.354-.048-.517-.15-5.521-3.506-11.635-9.06-9.896-20.99.079-.537.585-.914 1.102-.829zm18.75 13.59c.536 0 .971.44.971.984 0 .504-.375.92-.857.978l-.114.006h0-10.105c-.535 0-.97-.441-.97-.984 0-.543.435-.985.97-.985h10.105zm2.304-5.759c.535 0 .97.442.97.985.002.504-.371.921-.855.978l-.113.007h0H8.747c-.535 0-.97-.442-.97-.985 0-.543.435-.985.97-.985h14.72zm2.124-5.754c.535 0 .97.441.97.984 0 .505-.375.921-.859.978l-.113.007h0-18.96c-.535 0-.97-.442-.97-.985 0-.543.435-.984.97-.984h18.962z"/>
</svg>
