<svg xmlns="http://www.w3.org/2000/svg" width="49" height="49" viewBox="0 0 49 49">
    <path fill="#FFF" stroke="#FFF" stroke-width=".6" d="M24.75 1c6.342 0 12.304 2.475 16.795 6.955 4.48 4.49 6.955 10.453 6.955 16.795 0 6.342-2.475 12.306-6.955 16.795-2.511 2.505-5.482 4.383-8.722 5.552h14.975c.39 0 .702.312.702.703 0 .389-.312.7-.702.7H24.75l-.093-.001-22.955.001c-.39 0-.702-.311-.702-.702 0-.391.311-.703.702-.703l14.973.002c-3.24-1.17-6.21-3.048-8.72-5.552C3.476 37.055 1 31.092 1 24.75c0-6.342 2.475-12.304 6.956-16.795C12.446 3.475 18.408 1 24.75 1zm0 1.404c-12.324 0-22.345 10.02-22.345 22.346 0 12.325 10.02 22.346 22.345 22.346s22.346-10.02 22.346-22.346c0-12.325-10.02-22.346-22.346-22.346zm0 31.666c2.595 0 4.71 2.115 4.71 4.71 0 .168-.012.342-.03.513.006.051.006.104 0 .157-.35 2.307-2.355 4.039-4.68 4.039-2.324 0-4.33-1.734-4.659-4.039-.03-.218-.051-.45-.051-.67 0-2.595 2.115-4.71 4.71-4.71zm-3.126 5.781c.452 1.313 1.703 2.235 3.126 2.235 1.423 0 2.675-.922 3.127-2.235-2.044-.49-4.21-.49-6.253 0zm15.873-8.95l.052.046.125.1c.115.095.226.193.333.3 1.834 1.834 1.834 4.82 0 6.664-.891.88-2.084 1.37-3.336 1.37-1.262 0-2.445-.49-3.326-1.382-.126-.135-.252-.275-.372-.423-.025-.024-.05-.051-.072-.08-1.392-1.864-1.213-4.508.442-6.153 1.643-1.643 4.289-1.834 6.154-.442zm-22.658-.948c1.252 0 2.445.49 3.326 1.382 1.834 1.834 1.834 4.82 0 6.664-.16.16-.33.301-.51.442l-.019.01-.193.139c-.786.528-1.704.78-2.604.78v.001c-1.213 0-2.424-.46-3.336-1.372-1.642-1.642-1.834-4.289-.442-6.153.026-.034.053-.065.083-.093l-.072.093c.14-.181.28-.35.441-.511.892-.892 2.075-1.382 3.326-1.382zm9.911 5.52c-1.713 0-3.125 1.308-3.291 2.978 1.08-.249 2.18-.373 3.301-.373 1.106 0 2.205.123 3.28.368-.167-1.667-1.58-2.973-3.29-2.973zm12.482-2.901l-.018.028c-.583.923-1.272 1.78-2.052 2.56-.786.785-1.654 1.474-2.586 2.063 1.299 1.073 3.224 1 4.44-.215.62-.621.973-1.454.973-2.335 0-.775-.263-1.513-.757-2.101zm-25.369.646c-.61 1.241-.38 2.786.631 3.788 1.012 1.011 2.545 1.241 3.788.63-.551-.89-1.203-1.723-1.954-2.475-.74-.74-1.573-1.392-2.465-1.943zm2.976-1.865c-.776 0-1.515.264-2.104.76.933.587 1.799 1.28 2.585 2.067.786.787 1.48 1.655 2.068 2.588 1.074-1.299 1.003-3.225-.214-4.442-.62-.62-1.453-.973-2.335-.973zm19.832.01c-.85 0-1.704.33-2.345.963-1.011 1.012-1.241 2.544-.63 3.788.89-.552 1.723-1.203 2.474-1.954.752-.751 1.403-1.574 1.954-2.475-.451-.212-.952-.322-1.453-.322zm-9.92-12.325c3.146 0 5.71 2.565 5.71 5.712s-2.564 5.712-5.71 5.712c-3.148 0-5.712-2.565-5.712-5.712s2.564-5.712 5.711-5.712zm14.028 1c2.595 0 4.71 2.115 4.71 4.71 0 2.597-2.115 4.712-4.71 4.712-.193 0-.395-.016-.59-.04h.02c-.03 0-.066 0-.096-.01h-.006l-.01-.003-.202-.034c-2.197-.42-3.824-2.371-3.824-4.623 0-2.303 1.702-4.293 3.974-4.65.02-.005.041-.008.062-.011.22-.03.452-.051.672-.051zm-28.057 0c2.595 0 4.71 2.115 4.71 4.71-.002 2.597-2.115 4.712-4.71 4.712-.193 0-.395-.016-.59-.04h.017c-.03 0-.069 0-.1-.01-2.303-.33-4.038-2.335-4.038-4.66 0-2.307 1.708-4.299 3.986-4.651.017-.005.035-.008.053-.01.22-.03.452-.051.672-.051zm14.028.403c-2.375 0-4.309 1.934-4.309 4.31 0 2.375 1.934 4.308 4.31 4.308 2.375 0 4.308-1.933 4.308-4.309 0-2.375-1.933-4.309-4.309-4.309zM11.05 21.456l.01.044c.242 1.065.363 2.154.363 3.26 0 1.105-.122 2.204-.367 3.278 1.668-.167 2.974-1.579 2.974-3.29 0-1.713-1.31-3.127-2.98-3.292zm28.059 0l.01.044c.242 1.065.363 2.154.363 3.26 0 1.105-.122 2.204-.367 3.278 1.667-.168 2.972-1.58 2.972-3.29 0-1.713-1.308-3.126-2.978-3.292zm-1.402.167c-1.313.452-2.235 1.704-2.235 3.127 0 1.423.922 2.675 2.235 3.127.25-1.022.37-2.075.37-3.127.002-1.063-.118-2.105-.37-3.127zm-28.057 0c-1.313.452-2.235 1.704-2.235 3.127 0 1.423.922 2.675 2.235 3.127.25-1.022.37-2.075.37-3.127 0-1.063-.12-2.105-.37-3.127zm8.007-10.564c.038.028.072.06.103.093l-.115-.089c.182.14.35.281.511.442.892.892 1.382 2.074 1.382 3.326 0 1.252-.49 2.445-1.382 3.326-.881.892-2.064 1.382-3.326 1.382s-2.444-.49-3.326-1.382c-.14-.14-.265-.287-.388-.443-.02-.018-.037-.038-.054-.06-1.392-1.864-1.213-4.508.442-6.153 1.643-1.643 4.289-1.834 6.153-.442zm20.351.444c.892.892 1.382 2.074 1.382 3.326 0 1.252-.49 2.445-1.382 3.326-.16.16-.33.301-.51.442l-.018.01-.196.14c-.793.529-1.703.782-2.602.782-1.213 0-2.424-.46-3.336-1.372-1.643-1.642-1.834-4.288-.442-6.153l.069-.08.07-.087c.096-.116.194-.227.3-.334 1.835-1.834 4.82-1.834 6.665 0zm-20.62 1.235l-.013.02c-.584.923-1.272 1.78-2.052 2.56-.786.785-1.653 1.48-2.585 2.066.587.485 1.32.755 2.092.755.882 0 1.714-.34 2.335-.973.62-.621.973-1.454.973-2.335 0-.772-.26-1.506-.75-2.093zm14.318.638c-.61 1.241-.38 2.786.631 3.788 1.012 1.011 2.544 1.241 3.788.63-.552-.89-1.203-1.723-1.954-2.474-.743-.741-1.573-1.393-2.465-1.944zm.929-1.148l-.053.045c.93.587 1.796 1.28 2.58 2.066.787.787 1.476 1.655 2.066 2.589.488-.587.76-1.324.76-2.099 0-.881-.34-1.714-.973-2.335-1.197-1.196-3.081-1.285-4.38-.266zm-17.795-.705c-.85 0-1.703.33-2.345.963-1.011 1.012-1.241 2.544-.63 3.788.89-.551 1.723-1.203 2.474-1.954.752-.751 1.403-1.573 1.955-2.475-.463-.212-.963-.322-1.454-.322zm9.911-5.511c2.595 0 4.71 2.114 4.71 4.71 0 .167-.012.342-.03.513.006.051.006.105 0 .158-.35 2.304-2.355 4.038-4.68 4.038-2.324 0-4.33-1.734-4.659-4.038-.03-.22-.051-.451-.051-.671 0-2.596 2.115-4.71 4.71-4.71zm-3.126 5.782c.452 1.313 1.703 2.235 3.126 2.235 1.423 0 2.675-.922 3.127-2.235-2.044-.493-4.21-.493-6.253 0zm3.126-4.38c-1.713 0-3.127 1.31-3.292 2.98 1.08-.25 2.182-.373 3.302-.373 1.106 0 2.205.122 3.28.368-.166-1.668-1.578-2.975-3.29-2.975z"/>
</svg>
