<svg xmlns="http://www.w3.org/2000/svg" width="32" height="32" viewBox="0 0 32 32">
    <g fill="none" fill-rule="evenodd" transform="translate(1 1)">
        <circle cx="15" cy="15" r="15" stroke="#FFF" stroke-width="1.283"/>
        <g fill="#FFF">
            <path fill-rule="nonzero" stroke="#FFF" stroke-width=".6" d="M14.053 8.4c-1.958 0-3.594 1.439-3.928 3.33a3.458 3.458 0 0 0-3.135 3.456c0 1.924 1.541 3.485 3.441 3.485h1.63c.058 0 .214-.167.22-.328.009-.202-.147-.407-.22-.406h-1.63c-1.511 0-2.717-1.22-2.717-2.75 0-1.531 1.206-2.752 2.717-2.752a.364.364 0 0 0 .362-.332c.165-1.666 1.567-2.97 3.26-2.97.922 0 1.676.362 2.275.986.102.106.255.14.39.086.262-.1.635-.154.957-.154 1.302 0 2.384.974 2.536 2.24a.366.366 0 0 0 .238.304c1.035.385 1.754 1.394 1.754 2.591 0 1.53-1.205 2.751-2.717 2.751h-1.43c-.068 0-.228.212-.224.406.004.173.164.329.225.328h1.43c1.9 0 3.44-1.56 3.44-3.485a3.463 3.463 0 0 0-2.031-3.17 3.284 3.284 0 0 0-3.22-2.699c-.329 0-.674.055-.997.15-.697-.656-1.59-1.067-2.626-1.067z"/>
            <path d="M14.43 20.4v-4.34a.66.66 0 0 1 1.32 0v4.34h1.337a.331.331 0 0 1 .212.586l-2.083 1.731a.331.331 0 0 1-.426-.002l-2.04-1.731a.331.331 0 0 1 .213-.584h1.467z"/>
        </g>
    </g>
</svg>
