<svg id="Layer_1" data-name="Layer 1" xmlns="http://www.w3.org/2000/svg" width="108" height="25" viewBox="0 0 108 25"><title>ic-private-cloud-no-icon</title><g style="isolation:isolate"><path d="M.19,18.5v-12H5.81a3.75,3.75,0,0,1,4,3.87,3.77,3.77,0,0,1-4,3.87H2.75V18.5Zm7-8.14A1.61,1.61,0,0,0,5.46,8.74H2.75V12H5.46A1.62,1.62,0,0,0,7.23,10.36Z" style="fill:#63676c"/><path d="M11.37,18.5V9.8h2.29V11a3.74,3.74,0,0,1,2.77-1.41v2.23a3,3,0,0,0-.63-.05,2.92,2.92,0,0,0-2.14,1V18.5Z" style="fill:#63676c"/><path d="M17.61,7.5A1.37,1.37,0,1,1,19,8.87,1.38,1.38,0,0,1,17.61,7.5Zm.23,11V9.8h2.29v8.7Z" style="fill:#63676c"/><path d="M24.65,18.5,21.16,9.8h2.45l2.27,6,2.27-6h2.47l-3.49,8.7Z" style="fill:#63676c"/><path d="M36.85,18.5v-.9a3.6,3.6,0,0,1-2.75,1.12,2.9,2.9,0,0,1-3-2.88,2.78,2.78,0,0,1,3-2.81,3.58,3.58,0,0,1,2.75,1.06V12.92c0-.88-.76-1.46-1.91-1.46a3.66,3.66,0,0,0-2.54,1L31.54,11a5.7,5.7,0,0,1,3.8-1.37c2,0,3.8.79,3.8,3.3V18.5Zm0-2.09V15.33A2.29,2.29,0,0,0,35,14.58c-.9,0-1.64.47-1.64,1.31s.74,1.28,1.64,1.28A2.28,2.28,0,0,0,36.85,16.41Z" style="fill:#63676c"/><path d="M41.86,16.34V11.8H40.42v-2h1.44V7.43h2.3V9.8h1.76v2H44.16v3.93c0,.54.29,1,.79,1a1.25,1.25,0,0,0,.79-.25l.49,1.73a2.83,2.83,0,0,1-1.91.56A2.17,2.17,0,0,1,41.86,16.34Z" style="fill:#63676c"/><path d="M46.93,14.14a4.43,4.43,0,0,1,4.5-4.56c2.59,0,4.36,1.95,4.36,4.79v.5H49.33a2.34,2.34,0,0,0,2.5,2A3.7,3.7,0,0,0,54.15,16l1,1.48a5.42,5.42,0,0,1-3.58,1.21A4.4,4.4,0,0,1,46.93,14.14Zm4.5-2.74a2.09,2.09,0,0,0-2.14,1.93h4.29A2,2,0,0,0,51.43,11.41Z" style="fill:#63676c"/><path d="M61.53,12.5a6.1,6.1,0,0,1,6.39-6.21,5.5,5.5,0,0,1,5,2.94l-2.2,1.08a3.25,3.25,0,0,0-2.83-1.75,3.74,3.74,0,0,0-3.76,3.94,3.74,3.74,0,0,0,3.76,3.94,3.22,3.22,0,0,0,2.83-1.75l2.2,1.06a5.53,5.53,0,0,1-5,3A6.1,6.1,0,0,1,61.53,12.5Z" style="fill:#63676c"/><path d="M74.42,18.5v-12h2.29v12Z" style="fill:#63676c"/><path d="M78.42,14.14a4.6,4.6,0,0,1,9.2,0,4.6,4.6,0,0,1-9.2,0Zm6.82,0a2.24,2.24,0,1,0-4.45,0,2.24,2.24,0,1,0,4.45,0Z" style="fill:#63676c"/><path d="M95.17,18.5V17.4a4.07,4.07,0,0,1-3.06,1.31A2.49,2.49,0,0,1,89.31,16V9.8h2.29v5.28a1.4,1.4,0,0,0,1.6,1.6,2.56,2.56,0,0,0,2-1V9.8h2.29v8.7Z" style="fill:#63676c"/><path d="M105.71,18.5V17.38A3.38,3.38,0,0,1,103,18.72c-2.2,0-3.85-1.66-3.85-4.55s1.64-4.57,3.85-4.57a3.35,3.35,0,0,1,2.68,1.33V6.49H108v12Zm0-2.81V12.61a2.49,2.49,0,0,0-2-1,2.27,2.27,0,0,0-2.2,2.54,2.26,2.26,0,0,0,2.2,2.52A2.49,2.49,0,0,0,105.71,15.69Z" style="fill:#63676c"/></g></svg>