<svg xmlns="http://www.w3.org/2000/svg" width="38" height="34" viewBox="0 0 38 34">
    <g fill="none" fill-rule="nonzero" stroke="#FFF" stroke-width=".3">
        <path fill="#434957" d="M32.933 23.11a2.858 2.858 0 1 1 0 5.716 2.858 2.858 0 0 1 0-5.715zm0 4.287a1.464 1.464 0 1 0 0-2.927 1.464 1.464 0 0 0 0 2.927zM13.21 17.5a2.858 2.858 0 0 1 2.16-2.753V11.82a2.858 2.858 0 1 1 1.395 0v2.927a2.858 2.858 0 1 1-3.555 2.753zm4.286 0a1.464 1.464 0 1 0-2.927 0 1.464 1.464 0 0 0 2.927 0zm-2.892-8.433a1.464 1.464 0 1 0 2.927 0 1.464 1.464 0 0 0-2.927 0zm18.33-2.858a2.858 2.858 0 1 1 0 5.715 2.858 2.858 0 0 1 0-5.715zm0 4.286a1.464 1.464 0 1 0 0-2.927 1.464 1.464 0 0 0 0 2.927zM16.067 28.791a2.858 2.858 0 1 1 2.718-3.694h3.136a2.858 2.858 0 1 1-.07 1.394h-2.996a2.858 2.858 0 0 1-2.788 2.3zm8.572-4.286a1.464 1.464 0 1 0 0 2.927 1.464 1.464 0 0 0 0-2.927zm-8.572 0a1.464 1.464 0 1 0 0 2.927 1.464 1.464 0 0 0 0-2.927z"/>
        <path fill="#3D84FF" d="M32.933 14.642l-.731.105-5.054-5.088a2.858 2.858 0 1 0-.662 1.29l4.496 4.53c-.384.36-.661.817-.802 1.324h-3.066a2.858 2.858 0 1 0 0 1.394h3.066a2.858 2.858 0 1 0 2.753-3.555zm-8.572-4.147a1.464 1.464 0 1 1 0-2.927 1.464 1.464 0 0 1 0 2.927zm0 8.434a1.464 1.464 0 1 1 1.463-1.429 1.464 1.464 0 0 1-1.463 1.464v-.035zm8.572 0a1.464 1.464 0 1 1 1.464-1.429 1.464 1.464 0 0 1-1.464 1.464v-.035z"/>
    </g>
</svg>
