<svg xmlns="http://www.w3.org/2000/svg" width="216" height="216" viewBox="0 0 216 216">
    <g fill="none" fill-rule="evenodd">
        <circle cx="108" cy="108" r="108" fill="#FF00CE"/>
        <path fill="#FFF" fill-rule="nonzero" stroke="#FFF" stroke-width="4.2" d="M108.12 27c.903.007 1.679.634 1.865 1.513h0L120.403 77.3l22.261-10.361c1.522-.716 3.276-.41 4.455.783 1.172 1.177 1.47 2.907.747 4.405h0L137.35 94.012l41.522 8.476c1.843.373 3.127 1.938 3.127 3.795 0 1.87-1.284 3.436-3.127 3.809h0l-41.455 8.385 10.448 21.983c.724 1.499.425 3.228-.747 4.406-1.186 1.192-2.932 1.498-4.455.782h0l-22.089-10.39-10.582 53.199c-.172.895-.963 1.543-1.873 1.543h0-.231c-.91 0-1.695-.648-1.874-1.543h0L95.56 135.309l-22.225 10.346c-1.522.716-3.268.41-4.455-.783-1.172-1.177-1.463-2.907-.746-4.405h0l10.515-21.886-41.515-8.482c-1.843-.373-3.134-1.938-3.134-3.81 0-1.87 1.291-3.436 3.134-3.808h0l41.456-8.386-10.448-21.983c-.717-1.498-.426-3.228.746-4.405 1.187-1.193 2.933-1.499 4.455-.783h0L95.47 77.337l10.553-48.824c.186-.887.962-1.513 1.865-1.513.038 0 .075.007.112.007.045-.007.082-.007.12-.007zm-.135 10.516L99.32 78.09c-.247 1.17-1.008 2.147-2.083 2.676-1.082.537-2.328.552-3.418.037h0L71.693 70.39l10.389 21.975c.522 1.081.514 2.326-.023 3.4-.537 1.088-1.53 1.848-2.724 2.087h0l-37.313 8.385 37.313 8.52c1.194.239 2.187 1.007 2.724 2.087.537 1.074.545 2.319.023 3.4h0l-10.508 21.885 22.217-10.309c.53-.253 1.104-.38 1.671-.38.605 0 1.21.142 1.77.425 1.081.544 1.835 1.535 2.066 2.72h0l8.694 44.203 8.695-44.202c.231-1.186.985-2.177 2.067-2.721 1.09-.552 2.343-.56 3.448-.045h0l22.089 10.391-10.381-21.975c-.523-1.081-.515-2.326.022-3.4.538-1.088 1.538-1.84 2.724-2.086h0l41.463-8.386.343-1.998-7.563 1.871-34.273-8.386c-1.186-.246-2.186-1.006-2.724-2.087-.537-1.073-.544-2.318-.022-3.399h0l10.515-21.885-22.253 10.324c-1.082.506-2.336.491-3.41-.038-1.075-.529-1.829-1.505-2.083-2.668h0l-8.664-40.58zm.344 54.727c8.686 0 15.754 7 15.754 15.61 0 8.609-7.068 15.608-15.754 15.608-8.687 0-15.754-7-15.754-15.609 0-8.61 7.067-15.609 15.754-15.609zm0 3.816c-6.583 0-11.933 5.292-11.933 11.792s5.358 11.793 11.933 11.793c6.582 0 11.933-5.293 11.933-11.793 0-6.5-5.359-11.792-11.933-11.792z"/>
    </g>
</svg>
