<svg xmlns="http://www.w3.org/2000/svg" width="216" height="216" viewBox="0 0 216 216">
    <g fill="none" fill-rule="evenodd">
        <circle cx="108" cy="108" r="108" fill="#FF00CE"/>
        <g fill="#FFF" fill-rule="nonzero" stroke="#FFF">
            <path stroke-width="4.406" d="M50.855 0c-14.095 0-25.88 10.359-28.28 23.976C9.937 25.116 0 35.766 0 48.86c0 12.778 9.438 23.328 21.637 24.89.686.089 1.732.155 3.139.2.416.006 1.54-1.201 1.588-2.358.06-1.456-1.064-2.932-1.588-2.924-1.399-.056-2.435-.137-3.109-.244-9.38-1.488-16.451-9.617-16.451-19.564 0-11.02 8.678-19.808 19.56-19.808 1.35.006 2.48-1.033 2.608-2.394C28.567 14.666 38.663 5.282 50.855 5.282c6.638 0 12.066 2.602 16.381 7.098.73.759 1.837 1.002 2.812.619 1.883-.724 4.566-1.114 6.887-1.114 9.368 0 17.16 7.013 18.255 16.135.113 1 .777 1.848 1.712 2.187 7.452 2.77 12.632 10.032 12.632 18.653 0 9.684-6.703 17.646-15.714 19.433-.828.164-1.626.289-2.394.375-.498-.007-1.648 1.526-1.618 2.924.026 1.24 1.176 2.364 1.618 2.359.73-.067 1.507-.164 2.328-.291 11.888-1.844 20.996-12.247 20.996-24.8 0-10.192-5.964-18.9-14.629-22.82C98.114 14.938 88.417 6.602 76.935 6.602c-2.363 0-4.846.394-7.172 1.073C64.739 2.962 58.31 0 50.855 0z" transform="translate(50 60.5)"/>
            <path stroke-width="2" d="M70.785 85.056c5.86-.006 10.61-4.778 10.615-10.667V60.167c-.006-5.89-4.755-10.661-10.615-10.667h-24.77c-5.86.006-10.61 4.778-10.615 10.667v14.222c.006 5.889 4.755 10.661 10.615 10.667h8.847v7.333h-5.308c-1.952 0-3.539 1.594-3.539 3.555 0 1.962 1.587 3.556 3.539 3.556h17.692c1.952 0 3.539-1.594 3.539-3.556 0-1.96-1.587-3.555-3.539-3.555h-5.308v-7.333h8.847zm-28.308-24.89c0-1.96 1.587-3.555 3.538-3.555h24.77c.94 0 1.84.372 2.504 1.039.664.667 1.034 1.572 1.034 2.517v14.222c0 .944-.37 1.85-1.034 2.516-.663.667-1.565 1.04-2.504 1.04h-24.77c-1.951 0-3.538-1.595-3.538-3.556V60.167z" transform="translate(50 60.5)"/>
        </g>
    </g>
</svg>
