<?xml version="1.0" encoding="UTF-8"?>
<svg width="216px" height="216px" viewBox="0 0 216 216" version="1.1" xmlns="http://www.w3.org/2000/svg" xmlns:xlink="http://www.w3.org/1999/xlink">
    <title>logo_CVO Copy</title>
    <g id="Design" stroke="none" stroke-width="1" fill="none" fill-rule="evenodd">
        <g id="NetApp_&amp;_Spot_Products_logos" transform="translate(-2388.000000, -1764.000000)">
            <g id="logo_CVO-Copy" transform="translate(2388.000000, 1764.000000)">
                <circle id="Oval-8" fill="#FF00CE" cx="108" cy="108" r="108"></circle>
                <g id="Group-5" transform="translate(54.857143, 44.000000)">
                    <path d="M47.8636364,2.06767936e-12 C34.5971864,2.06767936e-12 23.5066541,9.74926935 21.2471591,22.5656242 C9.35268955,23.6390425 0,33.6616659 0,45.9857126 C0,59.0250235 10.4423654,69.5999974 23.3181818,69.5999974 L77.1428571,69.5999974 L77.1428571,65.3390074 L23.3181818,64.628569 C13.0770892,64.628569 4.90909091,56.3568579 4.90909091,45.9857126 C4.90909091,35.6145672 13.0770941,27.3428561 23.3181818,27.3428561 C24.5887393,27.3484043 25.6535081,26.3712043 25.7727273,25.0901776 C26.8868835,13.8034816 36.3886695,4.97142838 47.8636364,4.97142838 C54.1108792,4.97142838 59.2200867,7.41999358 63.28125,11.6517853 C63.9682264,12.365729 65.0098959,12.5950545 65.9275568,12.2343745 C67.7000405,11.5528663 70.2251898,11.1857139 72.4090909,11.1857139 C81.2265104,11.1857139 88.5608628,17.785981 89.5909091,26.371874 C89.6968794,27.312717 90.321457,28.1108827 91.2017045,28.4303561 C98.2153068,31.0377584 103.090909,37.87172 103.090909,45.9857126 C103.090909,56.3568579 94.9229108,64.628569 84.6818182,64.628569 L77.1428571,65.3390074 L77.1428571,69.5999974 L84.6818182,69.5999974 C97.5576346,69.5999974 108,59.0250235 108,45.9857126 C108,36.3937143 102.3865,28.1972707 94.2315341,24.5075884 C92.342565,14.0600943 83.2158691,6.21428548 72.4090909,6.21428548 C70.1851868,6.21428548 67.8488523,6.58577547 65.6590909,7.22410687 C60.9311246,2.7880889 54.8810235,2.06767936e-12 47.8636364,2.06767936e-12 Z" id="Shape" stroke="#FFFFFF" stroke-width="4.40640009" fill="#FFFFFF" fill-rule="nonzero"></path>
                    <g id="Group-4" transform="translate(9.142857, 84.000000)">
                        <polygon id="Rectangle" stroke="#FFFFFF" stroke-width="9" stroke-linejoin="round" points="12 0 81 0 93 37 -1.00798536e-12 37"></polygon>
                        <g id="Group-2" transform="translate(21.000000, 9.000000)" fill="#FFFFFF" stroke="#FFFFFF">
                            <path d="M3.5,11 C5.43299662,11 7,12.5670034 7,14.5 C7,16.4329966 5.43299662,18 3.5,18 C1.56700338,18 0,16.4329966 0,14.5 C0,12.5670034 1.56700338,11 3.5,11 Z M25.5,11 C27.4329966,11 29,12.5670034 29,14.5 C29,16.4329966 27.4329966,18 25.5,18 C23.5670034,18 22,16.4329966 22,14.5 C22,12.5670034 23.5670034,11 25.5,11 Z M14.5,11 C16.4329966,11 18,12.5670034 18,14.5 C18,16.4329966 16.4329966,18 14.5,18 C12.5670034,18 11,16.4329966 11,14.5 C11,12.5670034 12.5670034,11 14.5,11 Z M36.5,11 C38.4329966,11 40,12.5670034 40,14.5 C40,16.4329966 38.4329966,18 36.5,18 C34.5670034,18 33,16.4329966 33,14.5 C33,12.5670034 34.5670034,11 36.5,11 Z M47.5,11 C49.4329966,11 51,12.5670034 51,14.5 C51,16.4329966 49.4329966,18 47.5,18 C45.5670034,18 44,16.4329966 44,14.5 C44,12.5670034 45.5670034,11 47.5,11 Z M10.5,0 C12.4329966,0 14,1.56700338 14,3.5 C14,5.43299662 12.4329966,7 10.5,7 C8.56700338,7 7,5.43299662 7,3.5 C7,1.56700338 8.56700338,0 10.5,0 Z M30.5,0 C32.4329966,0 34,1.56700338 34,3.5 C34,5.43299662 32.4329966,7 30.5,7 C28.5670034,7 27,5.43299662 27,3.5 C27,1.56700338 28.5670034,0 30.5,0 Z M20.5,0 C22.4329966,0 24,1.56700338 24,3.5 C24,5.43299662 22.4329966,7 20.5,7 C18.5670034,7 17,5.43299662 17,3.5 C17,1.56700338 18.5670034,0 20.5,0 Z M40.5,0 C42.4329966,0 44,1.56700338 44,3.5 C44,5.43299662 42.4329966,7 40.5,7 C38.5670034,7 37,5.43299662 37,3.5 C37,1.56700338 38.5670034,0 40.5,0 Z" id="Combined-Shape"></path>
                        </g>
                        <g id="Group-2" transform="translate(21.000000, 20.000000)"></g>
                    </g>
                </g>
            </g>
        </g>
    </g>
</svg>