<svg xmlns="http://www.w3.org/2000/svg" width="216" height="216" viewBox="0 0 216 216">
    <g fill="none" fill-rule="evenodd">
        <circle cx="108" cy="108" r="108" fill="#01C3FF"/>
        <g fill="#FFF">
            <path fill-rule="nonzero" stroke="#FFF" stroke-width="4.406" d="M51.183.48c-14.096 0-25.88 10.359-28.28 23.976C10.265 25.596.328 36.246.328 49.34c0 13.854 11.095 25.09 24.775 25.09H36.84c.417.006 1.541-1.201 1.589-2.358.06-1.456-1.065-2.932-1.589-2.924H25.103c-10.88 0-19.56-8.789-19.56-19.808 0-11.02 8.68-19.808 19.56-19.808 1.35.006 2.482-1.033 2.608-2.394 1.184-11.992 11.28-21.376 23.472-21.376 6.638 0 12.066 2.602 16.381 7.098.73.759 1.837 1.002 2.812.619 1.883-.724 4.566-1.114 6.887-1.114 9.368 0 17.16 7.013 18.255 16.135.113 1 .776 1.848 1.712 2.187 7.452 2.77 12.632 10.032 12.632 18.653 0 11.02-8.678 19.808-19.56 19.808H80.01c-.499-.007-1.649 1.526-1.62 2.924.027 1.24 1.178 2.364 1.62 2.358h10.292c13.68 0 24.776-11.236 24.776-25.09 0-10.192-5.964-18.9-14.63-22.82C98.443 15.418 88.746 7.082 77.264 7.082c-2.363 0-4.846.394-7.172 1.073C65.067 3.442 58.639.48 51.183.48z" transform="translate(50 60)"/>
            <path d="M59.556 103.562L74.55 91.1c1.013-.842 1.151-2.346.31-3.359-.454-.545-1.126-.86-1.835-.86H43.336c-1.317 0-2.385 1.068-2.385 2.385 0 .7.308 1.365.843 1.819l14.695 12.463c.883.749 2.177.755 3.067.015z" transform="translate(50 60)"/>
            <path d="M56.433 91.68h4.43c1.402 0 2.537-1.136 2.537-2.537V55.632c0-2.625-2.127-4.752-4.752-4.752-2.624 0-4.752 2.127-4.752 4.752v33.51c0 1.402 1.136 2.538 2.537 2.538z" transform="translate(50 60)"/>
        </g>
    </g>
</svg>
