<svg xmlns="http://www.w3.org/2000/svg" width="216" height="216" viewBox="0 0 216 216">
    <g fill="none" fill-rule="evenodd">
        <circle cx="108" cy="108" r="108" fill="#01C3FF"/>
        <g fill="#FFF" fill-rule="nonzero">
            <path d="M88.92 42.12c-2.58 0-4.68 2.1-4.68 4.68 0 20.636-16.804 37.44-37.44 37.44-10.023 0-19.475-3.961-26.459-10.981l5.69-5.878c1.18-1.18.35-3.188-1.326-3.188L6.559 65.502c-1.031 0-1.879.829-1.879 1.879l1 17.975c0 1.677 2.009 2.506 3.188 1.327l4.822-6.81C22.46 88.643 34.27 93.6 46.8 93.6c25.814 0 46.8-20.986 46.8-46.8 0-2.58-2.1-4.68-4.68-4.68zM9.36 46.8c0-20.636 16.804-37.44 37.44-37.44 9.968 0 19.439 3.998 26.44 11l-5.33 6.428c-1.18 1.179-.35 3.187 1.327 3.187h17.987c1.031 0 1.879-.829 1.879-1.88l-.165-19.9c0-1.677-2.008-2.506-3.187-1.327l-5.878 6.877C71.103 5.012 59.255 0 46.8 0 20.986 0 0 20.986 0 46.8c0 2.58 2.1 4.68 4.68 4.68 2.58 0 4.68-2.1 4.68-4.68z" transform="translate(62.1 61.2)"/>
        </g>
    </g>
</svg>
