<svg xmlns="http://www.w3.org/2000/svg" width="38" height="38" viewBox="0 0 38 38">
    <g fill="none" fill-rule="evenodd" stroke="#FFF" transform="translate(1 1)">
        <circle cx="18" cy="18" r="18" stroke-width="1.54"/>
        <g fill="#FFF" fill-rule="nonzero">
            <path stroke-width=".734" d="M16.864 10.08c-2.35 0-4.313 1.726-4.713 3.996a4.15 4.15 0 0 0-3.763 4.147c0 2.13 1.573 3.888 3.606 4.149.114.014.289.026.523.033.07.001.257-.2.265-.393.01-.243-.177-.489-.265-.487a4.86 4.86 0 0 1-.518-.041c-1.563-.248-2.742-1.603-2.742-3.26 0-1.837 1.447-3.302 3.26-3.302a.437.437 0 0 0 .435-.399c.197-1.999 1.88-3.563 3.912-3.563 1.106 0 2.01.434 2.73 1.183a.43.43 0 0 0 .469.103c.314-.12.76-.185 1.147-.185a3.063 3.063 0 0 1 3.043 2.689.44.44 0 0 0 .285.365c1.242.461 2.106 1.671 2.106 3.108 0 1.614-1.118 2.941-2.62 3.24a4.8 4.8 0 0 1-.398.062c-.083-.002-.275.254-.27.487.004.207.196.394.27.393.121-.011.25-.027.388-.048 1.98-.308 3.499-2.042 3.499-4.134 0-1.698-.994-3.15-2.438-3.803a3.94 3.94 0 0 0-3.865-3.24c-.393 0-.807.066-1.195.18-.837-.786-1.908-1.28-3.151-1.28z"/>
            <path stroke-width=".675" d="M18.24 17.25c1.369 0 2.478 1.218 2.478 2.72v1.346c0 .226-.747.226-.747 0v-1.308c0-1.072-.791-1.94-1.767-1.94h-.241c-.976 0-1.768.868-1.768 1.94v.938h3.776v-.001h.575a1.324 1.324 0 0 1 .426.089c.466.185.802.668.802 1.245v3.32c0 .736-.543 1.333-1.214 1.333h-4.947c-.67 0-1.213-.597-1.213-1.333v-3.32c0-.677.46-1.23 1.056-1.315v-.993c0-1.503 1.11-2.721 2.477-2.721h.308zm-2.627 8.862h4.948c.259 0 .469-.23.469-.515V22.28c0-.285-.21-.515-.47-.515h-4.947c-.259 0-.469.23-.469.515v3.317c0 .285.21.515.469.515z"/>
        </g>
    </g>
</svg>
