<svg xmlns="http://www.w3.org/2000/svg" width="216" height="216" viewBox="0 0 216 216">
    <g fill="none" fill-rule="evenodd">
        <circle cx="108" cy="108" r="108" fill="#FF00CE"/>
        <g fill="#FFF" fill-rule="nonzero">
            <path d="M50.4 72c10.122 0 18.327-8.059 18.327-18S60.522 36 50.4 36c-10.122 0-18.327 8.059-18.327 18S40.278 72 50.4 72zm0-27c5.06 0 9.164 4.03 9.164 9s-4.103 9-9.164 9c-5.06 0-9.164-4.03-9.164-9s4.103-9 9.164-9z" transform="translate(57.6 54)"/>
            <path d="M1.49 78.593c.839 1.599 1.764 3.154 2.771 4.657 3.397 4.996 9.823 7.075 15.578 5.04l5.75-2.025c2.702 2.017 5.65 3.695 8.775 4.995l1.1 5.917c1.095 6.082 6.361 10.59 12.645 10.823H52.69c6.253-.25 11.49-4.73 12.6-10.778l1.146-5.962c3.107-1.29 6.039-2.952 8.729-4.95l5.75 2.025c5.779 2.05 12.235-.051 15.624-5.085 1.01-1.513 1.927-3.084 2.749-4.703 2.775-5.371 1.386-11.915-3.345-15.75l-4.582-3.87c.428-3.286.428-6.613 0-9.9l4.582-3.87c4.663-3.873 6.05-10.362 3.368-15.75-.84-1.599-1.765-3.154-2.772-4.657-3.397-4.996-9.823-7.075-15.578-5.04l-5.75 2.025c-2.697-2.025-5.645-3.703-8.775-4.995l-1.1-5.917C64.242 4.74 58.976.232 52.692 0h-4.765c-6.252.25-11.49 4.73-12.6 10.777l-.962 5.963c-3.111 1.28-6.044 2.944-8.729 4.95l-5.75-2.025c-5.779-2.05-12.235.051-15.624 5.085-1.004 1.509-1.922 3.071-2.749 4.68-2.688 5.383-1.31 11.871 3.345 15.75l4.582 3.87c-.428 3.287-.428 6.613 0 9.9l-4.582 3.87C.13 66.665-1.267 73.206 1.489 78.593zm9.3-9l6.598-5.49c1.258-1.05 1.845-2.683 1.535-4.275-.794-3.907-.794-7.93 0-11.836.31-1.592-.277-3.225-1.535-4.274L10.79 38.25c-1.457-1.16-1.92-3.147-1.122-4.815.691-1.344 1.456-2.651 2.29-3.915 1.081-1.503 3.061-2.096 4.811-1.44l8.156 2.858c1.568.562 3.323.243 4.582-.833 3.058-2.59 6.587-4.59 10.4-5.895 1.56-.533 2.706-1.848 3.002-3.443l1.558-8.392c.378-1.893 2.024-3.287 3.986-3.375 1.297-.067 2.597-.067 3.894 0 1.98.068 3.65 1.466 4.032 3.375l1.558 8.415c.296 1.595 1.443 2.91 3.001 3.443 3.814 1.304 7.343 3.304 10.4 5.895 1.26 1.076 3.015 1.395 4.583.832l8.155-2.858c1.75-.655 3.73-.062 4.811 1.44.835 1.264 1.6 2.571 2.291 3.916.776 1.671.294 3.647-1.168 4.792l-6.575 5.49c-1.267 1.044-1.862 2.678-1.558 4.275.794 3.906.794 7.929 0 11.835-.304 1.597.291 3.23 1.558 4.275l6.575 5.625c1.457 1.16 1.92 3.147 1.122 4.815-.691 1.344-1.456 2.651-2.29 3.915-1.076 1.51-3.061 2.104-4.811 1.44l-8.156-2.858c-1.568-.562-3.323-.243-4.582.833-3.058 2.59-6.587 4.59-10.4 5.895-1.56.533-2.706 1.848-3.002 3.442l-1.558 8.393c-.378 1.893-2.024 3.287-3.986 3.375-1.297.067-2.597.067-3.894 0-1.987-.07-3.66-1.48-4.032-3.397l-1.558-8.393c-.296-1.595-1.443-2.91-3.001-3.442-3.814-1.305-7.343-3.305-10.4-5.895-.834-.71-1.9-1.102-3.002-1.103-.524.003-1.043.095-1.535.27l-8.156 2.857c-1.75.665-3.735.07-4.81-1.44-.835-1.263-1.6-2.57-2.291-3.914-.786-1.662-.324-3.636 1.122-4.793v-.157z" transform="translate(57.6 54)"/>
        </g>
    </g>
</svg>
