<svg xmlns="http://www.w3.org/2000/svg" width="216" height="216" viewBox="0 0 216 216">
    <g fill="none" fill-rule="evenodd">
        <circle cx="108" cy="108" r="108" fill="#13CA86"/>
        <path fill="#FFF" fill-rule="nonzero" d="M153.89 73.44c1.298 0 2.35 1.052 2.35 2.35v62.289c0 1.298-1.052 2.35-2.35 2.35h-7.54c-1.298 0-2.35-1.052-2.35-2.35V75.79c0-1.298 1.052-2.35 2.35-2.35h7.54zm-28.8 25.12c1.298 0 2.35 1.053 2.35 2.351v37.168c0 1.298-1.052 2.35-2.35 2.35h-7.54c-1.298 0-2.35-1.052-2.35-2.35v-37.168c0-1.298 1.052-2.35 2.35-2.35h7.54zm-28.8-25.12c1.298 0 2.35 1.052 2.35 2.35v62.289c0 1.298-1.052 2.35-2.35 2.35h-7.54c-1.298 0-2.35-1.052-2.35-2.35V75.79c0-1.298 1.052-2.35 2.35-2.35h7.54zm-28.8 25.12c1.298 0 2.35 1.053 2.35 2.351v37.168c0 1.298-1.052 2.35-2.35 2.35h-7.54c-1.298 0-2.35-1.052-2.35-2.35v-37.168c0-1.298 1.052-2.35 2.35-2.35h7.54z"/>
    </g>
</svg>
