<svg xmlns="http://www.w3.org/2000/svg" width="216" height="216" viewBox="0 0 216 216">
    <g fill="none" fill-rule="evenodd">
        <circle cx="108" cy="108" r="108" fill="#8E52FF"/>
        <g fill="#FFF" fill-rule="nonzero" stroke="#FFF" stroke-width="4.406">
            <path d="M68.36 102.204c1.899 0 3.437-1.075 3.437-2.4s-1.538-2.4-3.436-2.4H37.02c-1.898 0-3.436 1.075-3.436 2.4s1.538 2.4 3.436 2.4h31.34zM44.673 0C32.29 0 21.94 9.077 19.83 21.01 8.729 22.008 0 31.34 0 42.813 0 54.954 9.746 64.8 21.764 64.8H72v-3.967l-50.236-.662c-9.559 0-17.182-7.7-17.182-17.357 0-9.656 7.623-17.357 17.182-17.357 1.185.005 2.18-.904 2.29-2.097 1.04-10.508 9.909-18.731 20.619-18.731 5.83 0 10.6 2.28 14.39 6.22.64.664 1.613.877 2.47.542 1.654-.635 4.01-.977 6.049-.977 8.23 0 15.075 6.145 16.036 14.14.1.875.682 1.618 1.504 1.916 6.546 2.427 11.096 8.79 11.096 16.344 0 9.656-7.623 17.357-17.182 17.357L72 60.833V64.8h7.036c12.018 0 21.764-9.846 21.764-21.986 0-8.93-5.24-16.561-12.85-19.997C86.185 13.09 77.667 5.786 67.581 5.786c-2.076 0-4.256.346-6.3.94C56.869 2.596 51.222 0 44.672 0zM21.523 82.014c0 1.325 1.539 2.4 3.436 2.4h55.463c1.898 0 3.437-1.075 3.437-2.4 0-1.326-1.539-2.4-3.437-2.4H24.96c-1.897 0-3.436 1.074-3.436 2.4z" transform="translate(57.6 55.2)"/>
        </g>
    </g>
</svg>
