<svg xmlns="http://www.w3.org/2000/svg" width="216" height="216" viewBox="0 0 216 216">
    <g fill="none" fill-rule="evenodd">
        <circle cx="108" cy="108" r="108" fill="#01C3FF"/>
        <path fill="#FFF" fill-rule="nonzero" stroke="#FFF" stroke-linecap="round" stroke-linejoin="round" stroke-width="5.141" d="M127.453 125.043l33.374-15.968-33.732-14.429 33.709-16.129L107.56 55.44 53.127 78.517l35.25 16.497-35.343 14.562 34.63 15.864-34.744 14.25 54.641 23.75 53.359-23.714-33.467-14.683zM61.992 78.681l45.554-19.313L152.1 78.68 107.546 100 61.992 78.68zm.094 31.07l30.729-12.66 14.747 6.901 15.2-7.273 29.316 12.54-44.54 21.313-45.452-20.822zm45.46 49.745l-45.347-19.711 29.96-12.287 15.412 7.06 15.584-7.457 28.829 12.645-44.438 19.75z"/>
    </g>
</svg>
