<svg xmlns="http://www.w3.org/2000/svg" width="216" height="216" viewBox="0 0 216 216">
    <g fill="none" fill-rule="evenodd">
        <circle cx="108" cy="108" r="108" fill="#8E52FF"/>
        <path fill="#FFF" fill-rule="nonzero" stroke="#FFF" stroke-width="4.406" d="M102.72 72c-13.266 0-24.356 9.75-26.616 22.566-11.894 1.073-21.247 11.096-21.247 23.42 0 13.039 10.443 23.614 23.318 23.614H132v-4.261l-53.825-.71c-10.24 0-18.409-8.272-18.409-18.643s8.168-18.643 18.41-18.643c1.27.005 2.335-.972 2.454-2.253 1.114-11.287 10.616-20.119 22.09-20.119 6.248 0 11.357 2.449 15.418 6.68.687.715 1.729.944 2.647.583 1.772-.681 4.297-1.048 6.481-1.048 8.818 0 16.152 6.6 17.182 15.186.106.94.73 1.739 1.61 2.058 7.014 2.608 11.89 9.442 11.89 17.556 0 10.37-8.168 18.643-18.409 18.643l-7.539.71v4.261h7.539c12.876 0 23.318-10.575 23.318-23.614 0-9.592-5.613-17.789-13.768-21.478-1.89-10.448-11.016-18.294-21.823-18.294-2.224 0-4.56.372-6.75 1.01C115.788 74.788 109.738 72 102.721 72z"/>
    </g>
</svg>
