<svg xmlns="http://www.w3.org/2000/svg" width="51" height="51" viewBox="0 0 51 51">
    <g fill="none" fill-rule="evenodd" transform="translate(2 2)">
        <circle cx="23.5" cy="23.5" r="23.5" stroke="#1CA6FF" stroke-width="3.5"/>
        <g fill="#1CA6FF" fill-rule="nonzero" stroke="#1CA6FF" stroke-width="1.5">
            <path d="M13.4.476c-3.44 0-6.315 2.452-6.9 5.674C3.415 6.42.99 8.94.99 12.04c0 3.024 2.304 5.52 5.28 5.89.168.02.423.037.766.047.102.002.376-.284.388-.558.015-.344-.26-.694-.388-.692-.34-.013-.594-.032-.758-.057-2.289-.353-4.014-2.276-4.014-4.63 0-2.608 2.117-4.688 4.772-4.688.33.002.606-.244.637-.566.289-2.838 2.752-5.059 5.727-5.059 1.62 0 2.944.616 3.997 1.68.178.18.448.237.686.147.46-.172 1.114-.264 1.68-.264 2.287 0 4.188 1.66 4.455 3.818.028.237.19.437.418.518 1.818.655 3.082 2.374 3.082 4.414 0 2.292-1.635 4.176-3.834 4.598-.202.04-.397.069-.584.09-.122-.002-.403.36-.395.691.006.294.287.56.395.558.178-.015.367-.038.568-.068 2.9-.437 5.123-2.899 5.123-5.87 0-2.411-1.455-4.472-3.57-5.4-.49-2.626-2.856-4.6-5.657-4.6-.577 0-1.183.094-1.75.255C16.788 1.177 15.219.476 13.4.476z" transform="translate(8.444 10.73)"/>
            <path d="M15.37 11.792c1.786 0 3.235 1.59 3.235 3.552V17.1h-.001c0 .295-.975.295-.975 0v-1.707c0-1.4-1.033-2.534-2.307-2.534h-.315c-1.274 0-2.308 1.134-2.308 2.534v1.223h5.68c.066.003.14.01.218.023.131.02.242.056.338.093.61.241 1.048.872 1.048 1.625v4.335c0 .96-.71 1.74-1.585 1.74H11.94c-.875 0-1.584-.78-1.584-1.74v-4.335c0-.884.601-1.606 1.378-1.717v-1.296c0-1.962 1.448-3.552 3.235-3.552h.401zm-3.43 11.57h6.459c.338 0 .612-.301.612-.672v-4.332c0-.37-.274-.671-.612-.671h-6.46c-.338 0-.612.3-.612.671v4.332c0 .37.274.671.612.671z" transform="translate(8.444 10.73)"/>
        </g>
    </g>
</svg>
