<svg xmlns="http://www.w3.org/2000/svg" width="51" height="51" viewBox="0 0 51 51">
    <g fill="none" fill-rule="evenodd" transform="translate(2 2)">
        <path fill="#3CB09F" fill-rule="nonzero" stroke="#00B39F" d="M33.485 15.98c.283 0 .512.229.512.511v13.554c0 .282-.23.511-.512.511h-1.64c-.283 0-.512-.229-.512-.511V16.491c0-.282.23-.511.512-.511h1.64zm-6.266 5.466c.282 0 .511.23.511.511v8.088c0 .282-.229.511-.511.511h-1.641c-.282 0-.511-.229-.511-.511v-8.088c0-.282.229-.51.511-.51h1.64zm-6.267-5.466c.282 0 .511.229.511.511v13.554c0 .282-.229.511-.511.511h-1.64c-.283 0-.512-.229-.512-.511V16.491c0-.282.229-.511.511-.511h1.641zm-6.267 5.466c.283 0 .512.23.512.511v8.088c0 .282-.23.511-.512.511h-1.64c-.283 0-.512-.229-.512-.511v-8.088c0-.282.23-.51.512-.51h1.64z"/>
        <circle cx="23.5" cy="23.5" r="23.5" stroke="#3CB09F" stroke-width="3.5"/>
    </g>
</svg>
