<svg xmlns="http://www.w3.org/2000/svg" width="216" height="216" viewBox="0 0 216 216">
    <g fill="none" fill-rule="evenodd">
        <circle cx="108" cy="108" r="108" fill="#01C3FF"/>
        <g fill="#FFF" fill-rule="nonzero" stroke="#FFF">
            <path stroke-width="4.406" d="M51.183.98c-14.096 0-25.88 10.359-28.28 23.976C10.265 26.096.328 36.746.328 49.84c0 12.778 9.438 23.328 21.637 24.89.685.088 1.732.155 3.138.2.417.006 1.541-1.201 1.59-2.358.06-1.456-1.065-2.932-1.59-2.924-1.398-.056-2.434-.137-3.108-.244-9.38-1.488-16.451-9.617-16.451-19.564 0-11.02 8.678-19.808 19.56-19.808 1.35.006 2.48-1.033 2.607-2.394 1.184-11.992 11.28-21.376 23.472-21.376 6.638 0 12.066 2.602 16.381 7.098.73.759 1.837 1.002 2.812.619 1.883-.724 4.566-1.114 6.887-1.114 9.368 0 17.16 7.013 18.255 16.135.113 1 .776 1.848 1.712 2.187 7.452 2.77 12.632 10.032 12.632 18.653 0 9.684-6.703 17.646-15.714 19.433-.828.164-1.626.289-2.394.375-.498-.007-1.648 1.526-1.618 2.924.026 1.24 1.176 2.364 1.618 2.359.73-.067 1.507-.164 2.328-.291 11.887-1.844 20.996-12.247 20.996-24.8 0-10.192-5.964-18.9-14.63-22.82C98.443 15.918 88.746 7.582 77.264 7.582c-2.363 0-4.846.394-7.172 1.073C65.067 3.942 58.639.98 51.183.98z" transform="translate(50 59.5)"/>
            <path stroke-width="4.05" d="M59.446 44c8.208 0 14.864 7.31 14.864 16.325v8.069h-.003c0 1.356-4.482 1.356-4.482 0V60.55c0-6.432-4.747-11.646-10.601-11.646h-1.449c-5.853 0-10.604 5.214-10.604 11.646v5.622h22.654v-.003l3.45.003c.304.012.64.042 1 .102.605.097 1.114.259 1.555.427 2.8 1.11 4.816 4.012 4.816 7.47v19.922c0 4.414-3.261 7.996-7.283 7.996H43.68c-4.022 0-7.28-3.582-7.28-7.996V74.172c0-4.063 2.765-7.38 6.336-7.89v-5.957C42.736 51.31 49.392 44 57.6 44h1.846zM43.678 97.17h29.688c1.552 0 2.812-1.38 2.812-3.085V74.178c0-1.705-1.26-3.085-2.812-3.085H43.678c-1.553 0-2.812 1.38-2.812 3.085v19.907c0 1.705 1.26 3.085 2.812 3.085z" transform="translate(50 59.5)"/>
        </g>
    </g>
</svg>
