<svg xmlns="http://www.w3.org/2000/svg" width="233" height="193" viewBox="0 0 233 193">
    <g fill="#8D52FF">
        <path d="M205.564 158.635c-30.076 30.238-75.832 35.1-110.945 14.567l39.088-39.097c4.158-4.162 4.158-10.902.036-15.083-4.12-4.164-10.843-4.18-14.983-.037l-41.268 41.289h-.018c-.568-.534-1.135-1.087-1.685-1.64-5.348-5.377-9.891-11.251-13.628-17.476l61.636-62.927c4.122-4.18 4.067-10.939-.11-15.064-4.176-4.125-10.88-4.07-14.983.11l-55.83 56.997c-9.506-31.528-1.868-67.18 22.915-92.116 35.846-36.021 93.947-36.021 129.775 0 35.827 36.04 35.827 94.455 0 130.477M61.51 140.46l-43.455 44.58c-2.06 2.118-4.778 3.168-7.513 3.168-2.662 0-5.343-1.013-7.403-3.058-4.14-4.126-4.194-10.868-.11-15.068l49.236-50.51c2.17 7.239 5.251 14.257 9.245 20.889M94 172.891l-16.989 17.005c-2.062 2.057-4.763 3.104-7.445 3.104-2.72 0-5.438-1.047-7.5-3.14-4.106-4.169-4.088-10.89.054-15.022L76.92 160h.018c5.274 5.087 11.004 9.366 17.062 12.891"/>
    </g>
</svg>
