<svg xmlns="http://www.w3.org/2000/svg" width="209" height="186" viewBox="0 0 209 186">
    <g fill="#FF00CE">
        <path d="M28.944 121.482l-27.528 48.34c-2.961 5.203-1.13 11.812 4.093 14.765 1.692.959 3.535 1.414 5.352 1.414 3.785 0 7.464-1.975 9.466-5.49l20.347-35.745c-.065-.094-.134-.185-.2-.28-4.854-7.031-8.75-14.76-11.53-23.004M78.242 54.107c6.065.285 11.571 3.792 14.4 9.163L94 65.775l-1.216-2.42c-2.823-5.469-8.394-9.047-14.538-9.335-6.13-.296-12.024 2.749-15.346 7.933L47 90l15.972-27.999c3.305-5.158 9.139-8.183 15.27-7.894"/>
        <path d="M161.515 92.053c-6.55 0-11.86-5.306-11.86-11.849s5.31-11.848 11.86-11.848 11.86 5.305 11.86 11.848c0 6.543-5.31 11.85-11.86 11.85M116.025.356c-50.997 0-92.337 41.305-92.337 92.258 0 10.24 1.696 20.079 4.776 29.283l18.109-31.683 15.855-27.918c3.312-5.159 9.19-8.192 15.301-7.897 6.127.287 11.682 3.849 14.497 9.293l1.212 2.408 28.69 52.743 13.955-19.167c3.463-4.76 10.134-5.81 14.896-2.348 4.005 2.912 5.375 8.083 3.653 12.486-.326.833-.752 1.641-1.3 2.398L134.985 137.4c-3.553 4.599-9.147 7.039-14.924 6.508-5.745-.52-10.763-3.865-13.447-8.959L76.837 80.206 39.91 144.833c.066.094.134.186.199.28 16.671 24.018 44.445 39.76 75.915 39.76 50.996 0 92.336-41.305 92.336-92.258 0-50.953-41.34-92.258-92.336-92.258"/>
    </g>
</svg>
