<svg xmlns="http://www.w3.org/2000/svg" width="219" height="228" viewBox="0 0 219 228">
    <g fill="#14CA86">
        <path d="M0 142.987c0 16.545 5.114 32.498 14.788 46.134 16.01 22.565 42.56 36.038 71.018 36.038 5.91 0 10.699-4.772 10.699-10.655 0-5.884-4.789-10.655-10.699-10.655-21.519 0-41.539-10.104-53.545-27.025-7.107-10.018-10.866-21.72-10.866-33.837 0-14.176 5.17-27.222 13.8-37.579-.495-3.872-.781-7.808-.781-11.815 0-5.995.595-11.85 1.69-17.527C14.276 90.978-.001 115.41-.001 142.986"/>
        <path d="M83.004 109.25c20.307 0 36.828 16.644 36.828 37.104 0 15.789-9.856 29.27-23.681 34.62 9.368 3.248 19.418 5.026 29.88 5.026 1.452 0 2.894-.044 4.328-.11 9.637-9.38 13.468-18.67 13.757-19.392l.13-.319c3.154-7.345 4.754-15.133 4.754-23.152C149 109.377 120.362 82 85.16 82 64.829 82 46.699 91.145 35 105.348c1.593 12.54 5.685 24.289 11.743 34.74 2.97-17.48 18.077-30.839 36.26-30.839"/>
        <path d="M83.5 131c-8.546 0-15.5 6.952-15.5 15.498C68 155.046 74.954 162 83.5 162S99 155.046 99 146.498C99 137.952 92.046 131 83.5 131M126.464 1.839c-44.918 0-82.31 32.049-90.497 74.464 13.967-9.555 31.035-15.2 49.46-15.2 47.083 0 85.388 36.735 85.388 81.888 0 10.836-2.175 21.365-6.464 31.304-.241.596-.872 2.07-1.947 4.153 33.052-13.97 56.24-46.624 56.24-84.679 0-50.772-41.271-91.93-92.18-91.93"/>
    </g>
</svg>
