<?xml version="1.0" encoding="UTF-8"?>
<svg width="38px" height="38px" viewBox="0 0 38 38" version="1.1" xmlns="http://www.w3.org/2000/svg" xmlns:xlink="http://www.w3.org/1999/xlink">
    <title>VDS_product_logo</title>
    <g id="Design" stroke="none" stroke-width="1" fill="none" fill-rule="evenodd">
        <g id="VDS_Product_page" transform="translate(-34.000000, -31.000000)">
            <g id="header_cloud_backup" transform="translate(35.000000, 32.000000)">
                <g id="Group" opacity="0" transform="translate(11.250000, 8.100000)"></g>
                <circle id="Oval-8" stroke="#FFFFFF" stroke-width="1.53977242" cx="18" cy="18" r="18"></circle>
                <g id="Group-3" transform="translate(8.333333, 10.083333)" fill="#FFFFFF" fill-rule="nonzero" stroke="#FFFFFF">
                    <path d="M8.47585227,0 C6.12658509,0 4.16263666,1.72643258 3.76251776,3.99599471 C1.65620544,4.18607916 0,5.96091816 0,8.14330075 C0,10.2729269 1.57296447,12.0313791 3.60622733,12.2917924 C3.7204269,12.3064187 3.89477158,12.3175249 4.12926136,12.3251109 C4.19867232,12.3259898 4.38609385,12.1248215 4.39403409,11.9319824 C4.40402563,11.6893249 4.21660409,11.443388 4.12926136,11.4446389 C3.89624651,11.4353893 3.72355565,11.4218508 3.61118879,11.4040234 C2.04789277,11.1560005 0.869318182,9.80111607 0.869318182,8.14330075 C0.869318182,6.30674434 2.31573541,4.84196261 4.12926136,4.84196261 C4.35425592,4.84294509 4.54280872,4.66989932 4.56392045,4.44305092 C4.76121895,2.44436578 6.44382689,0.880356838 8.47585227,0.880356838 C9.58213486,0.880356838 10.4868904,1.31395679 11.2060547,2.06333634 C11.3277068,2.18976384 11.5121691,2.23037354 11.6746715,2.16650316 C11.9885488,2.04581944 12.4357107,1.98080289 12.8224432,1.98080289 C14.3838612,1.98080289 15.6826528,3.14959984 15.8650568,4.67001792 C15.8838224,4.83662548 15.9944247,4.97796728 16.1503018,5.03454067 C17.3922939,5.49626802 18.2556818,6.70644835 18.2556818,8.14330075 C18.2556818,9.75738274 17.1384689,11.0843057 15.6367131,11.3820987 C15.4987184,11.4094626 15.3657287,11.4303093 15.2377441,11.4446389 C15.1546766,11.4434492 14.9629707,11.6989684 14.9679421,11.9319824 C14.9723521,12.1386807 15.164058,12.3260511 15.2377441,12.3251109 C15.3594456,12.3140545 15.488763,12.297907 15.6256962,12.2766683 C17.6069172,11.9693759 19.125,10.2354451 19.125,8.14330075 C19.125,6.44471826 18.1309427,4.99326514 16.6868342,4.3398841 C16.3523292,2.4898076 14.7361435,1.10044605 12.8224432,1.10044605 C12.4286268,1.10044605 12.0149009,1.16623071 11.6271307,1.27926853 C10.7898866,0.493723923 9.71851458,0 8.47585227,0 Z" id="Shape" stroke-width="0.734400015"></path>
                    <path d="M11.7974359,14.1759259 C12.7741928,14.1750001 13.5657467,13.3796237 13.5666667,12.3981481 L13.5666667,10.0277778 C13.5657453,9.04630222 12.7741928,8.25092444 11.7974359,8.25 L7.66923077,8.25 C6.69247385,8.25092587 5.90092,9.04630222 5.9,10.0277778 L5.9,12.3981481 C5.90092142,13.3796237 6.69247385,14.1750015 7.66923077,14.1759259 L9.14358974,14.1759259 L9.14358974,15.3981481 L8.25897436,15.3981481 C7.93369538,15.3981481 7.66923077,15.6638904 7.66923077,15.9907407 C7.66923077,16.3175911 7.93369538,16.5833333 8.25897436,16.5833333 L11.2076923,16.5833333 C11.5329713,16.5833333 11.7974359,16.3175911 11.7974359,15.9907407 C11.7974359,15.6638904 11.5329713,15.3981481 11.2076923,15.3981481 L10.3230769,15.3981481 L10.3230769,14.1759259 L11.7974359,14.1759259 Z M7.07948718,10.0277778 C7.07948718,9.70092741 7.34395179,9.43518519 7.66923077,9.43518519 L11.7974359,9.43518519 C11.9540859,9.43518519 12.1042913,9.49722252 12.2148564,9.60833363 C12.3254215,9.71944474 12.3871724,9.87037807 12.3871724,10.0277707 L12.3871724,12.398141 C12.3871724,12.5555479 12.3254333,12.7064788 12.2148564,12.8175781 C12.1042795,12.9286773 11.9540718,12.9907265 11.7974359,12.9907265 L7.66923077,12.9907265 C7.34395179,12.9907265 7.07948718,12.7249843 7.07948718,12.3981339 L7.07948718,10.0277778 Z" id="Combined-Shape" stroke-width="0.2"></path>
                </g>
            </g>
        </g>
    </g>
</svg>